<?xml version="1.0" encoding="UTF-8"?>
<!DOCTYPE svg PUBLIC "-//W3C//DTD SVG 1.1//EN" "http://www.w3.org/Graphics/SVG/1.1/DTD/svg11.dtd">
<svg xmlns="http://www.w3.org/2000/svg" version="1.1" width="1024px" height="1024px" style="shape-rendering:geometricPrecision; text-rendering:geometricPrecision; image-rendering:optimizeQuality; fill-rule:evenodd; clip-rule:evenodd" xmlns:xlink="http://www.w3.org/1999/xlink">
<g><path style="opacity:1" fill="#f5fbf4" d="M -0.5,-0.5 C 2.16667,-0.5 4.83333,-0.5 7.5,-0.5C 7.5,2.16667 7.5,4.83333 7.5,7.5C 8.83333,7.5 10.1667,7.5 11.5,7.5C 11.6645,22.202 10.9978,36.8687 9.5,51.5C 11.2993,82.1376 11.9659,112.804 11.5,143.5C 12.8333,143.5 14.1667,143.5 15.5,143.5C 15.5,100.833 15.5,58.1667 15.5,15.5C 18.1667,15.5 20.8333,15.5 23.5,15.5C 23.5,18.1667 23.5,20.8333 23.5,23.5C 26.1667,23.5 28.8333,23.5 31.5,23.5C 31.5,44.8333 31.5,66.1667 31.5,87.5C 30.5,87.5 29.5,87.5 28.5,87.5C 28.5,90.1667 28.5,92.8333 28.5,95.5C 29.5,95.5 30.5,95.5 31.5,95.5C 31.5,106.167 31.5,116.833 31.5,127.5C 33.1667,127.5 34.8333,127.5 36.5,127.5C 36.5,130.167 36.5,132.833 36.5,135.5C 34.8333,135.5 33.1667,135.5 31.5,135.5C 31.5,140.833 31.5,146.167 31.5,151.5C 33.1667,151.5 34.8333,151.5 36.5,151.5C 36.5,159.5 36.5,167.5 36.5,175.5C 37.5,175.5 38.5,175.5 39.5,175.5C 39.5,183.5 39.5,191.5 39.5,199.5C 36.8333,199.5 34.1667,199.5 31.5,199.5C 31.5,202.167 31.5,204.833 31.5,207.5C 34.1667,207.5 36.8333,207.5 39.5,207.5C 39.5,210.167 39.5,212.833 39.5,215.5C 36.8333,215.5 34.1667,215.5 31.5,215.5C 31.5,231.5 31.5,247.5 31.5,263.5C 28.8333,263.5 26.1667,263.5 23.5,263.5C 23.5091,271.568 24.1757,279.568 25.5,287.5C 24.1667,287.5 22.8333,287.5 21.5,287.5C 21.5,290.167 21.5,292.833 21.5,295.5C 22.8333,295.5 24.1667,295.5 25.5,295.5C 23.9509,306.094 23.2842,316.76 23.5,327.5C 28.8333,327.5 34.1667,327.5 39.5,327.5C 39.5,332.833 39.5,338.167 39.5,343.5C 36.8333,343.5 34.1667,343.5 31.5,343.5C 31.5,372.833 31.5,402.167 31.5,431.5C 34.1667,431.5 36.8333,431.5 39.5,431.5C 39.5,436.833 39.5,442.167 39.5,447.5C 36.8333,447.5 34.1667,447.5 31.5,447.5C 31.0052,459.581 31.6718,471.581 33.5,483.5C 31.6718,495.419 31.0052,507.419 31.5,519.5C 34.1667,519.5 36.8333,519.5 39.5,519.5C 39.5,527.5 39.5,535.5 39.5,543.5C 38.5,543.5 37.5,543.5 36.5,543.5C 36.5,546.167 36.5,548.833 36.5,551.5C 37.5,551.5 38.5,551.5 39.5,551.5C 39.5,554.167 39.5,556.833 39.5,559.5C 36.8333,559.5 34.1667,559.5 31.5,559.5C 31.5,567.5 31.5,575.5 31.5,583.5C 34.1667,583.5 36.8333,583.5 39.5,583.5C 39.5,586.167 39.5,588.833 39.5,591.5C 36.8333,591.5 34.1667,591.5 31.5,591.5C 31.5,594.167 31.5,596.833 31.5,599.5C 34.1667,599.5 36.8333,599.5 39.5,599.5C 39.5,604.833 39.5,610.167 39.5,615.5C 36.8333,615.5 34.1667,615.5 31.5,615.5C 31.5,626.167 31.5,636.833 31.5,647.5C 34.1667,647.5 36.8333,647.5 39.5,647.5C 39.5,650.167 39.5,652.833 39.5,655.5C 36.8333,655.5 34.1667,655.5 31.5,655.5C 31.998,679.561 31.3313,703.561 29.5,727.5C 32.8333,727.5 36.1667,727.5 39.5,727.5C 39.5,735.5 39.5,743.5 39.5,751.5C 36.8333,751.5 34.1667,751.5 31.5,751.5C 31.5,756.833 31.5,762.167 31.5,767.5C 34.1667,767.5 36.8333,767.5 39.5,767.5C 39.5,770.167 39.5,772.833 39.5,775.5C 36.8333,775.5 34.1667,775.5 31.5,775.5C 31.5,783.5 31.5,791.5 31.5,799.5C 28.8333,799.5 26.1667,799.5 23.5,799.5C 23.5,807.5 23.5,815.5 23.5,823.5C 25.1667,823.5 26.8333,823.5 28.5,823.5C 28.5,826.167 28.5,828.833 28.5,831.5C 32.1667,831.5 35.8333,831.5 39.5,831.5C 39.5,834.167 39.5,836.833 39.5,839.5C 38.5,839.5 37.5,839.5 36.5,839.5C 36.5,842.167 36.5,844.833 36.5,847.5C 34.8333,847.5 33.1667,847.5 31.5,847.5C 31.5,852.833 31.5,858.167 31.5,863.5C 28.8333,863.5 26.1667,863.5 23.5,863.5C 23.1714,876.904 23.838,890.238 25.5,903.5C 26.5,903.5 27.5,903.5 28.5,903.5C 28.5,906.167 28.5,908.833 28.5,911.5C 29.5,911.5 30.5,911.5 31.5,911.5C 31.5,919.5 31.5,927.5 31.5,935.5C 30.5,935.5 29.5,935.5 28.5,935.5C 28.5,938.167 28.5,940.833 28.5,943.5C 32.1667,943.5 35.8333,943.5 39.5,943.5C 39.5,946.167 39.5,948.833 39.5,951.5C 36.8333,951.5 34.1667,951.5 31.5,951.5C 31.5,954.167 31.5,956.833 31.5,959.5C 28.8333,959.5 26.1667,959.5 23.5,959.5C 23.5,964.833 23.5,970.167 23.5,975.5C 26.1667,975.5 28.8333,975.5 31.5,975.5C 31.5,978.167 31.5,980.833 31.5,983.5C 28.8333,983.5 26.1667,983.5 23.5,983.5C 23.5,986.167 23.5,988.833 23.5,991.5C 20.8333,991.5 18.1667,991.5 15.5,991.5C 14.8431,1002.13 14.1764,1002.13 13.5,991.5C 15.4617,895.526 16.1284,799.526 15.5,703.5C 14.1667,703.5 12.8333,703.5 11.5,703.5C 12.0295,718.242 11.3628,732.908 9.5,747.5C 10.6062,752.769 11.2728,758.103 11.5,763.5C 10.8333,771.5 10.1667,779.5 9.5,787.5C 10.6106,803.478 11.2772,819.478 11.5,835.5C 11.425,848.889 10.7583,862.222 9.5,875.5C 12.1667,886.167 12.1667,896.833 9.5,907.5C 12.1667,915.5 12.1667,923.5 9.5,931.5C 10.7203,940.774 11.387,950.107 11.5,959.5C 11.0547,972.855 10.3881,986.188 9.5,999.5C 6.16667,999.5 2.83333,999.5 -0.5,999.5C -0.5,666.167 -0.5,332.833 -0.5,-0.5 Z"/></g>
<g><path style="opacity:1" fill="#f4faf3" d="M 7.5,-0.5 C 346.167,-0.5 684.833,-0.5 1023.5,-0.5C 1023.5,340.833 1023.5,682.167 1023.5,1023.5C 682.167,1023.5 340.833,1023.5 -0.5,1023.5C -0.5,1015.5 -0.5,1007.5 -0.5,999.5C 2.83333,999.5 6.16667,999.5 9.5,999.5C 10.3881,986.188 11.0547,972.855 11.5,959.5C 11.387,950.107 10.7203,940.774 9.5,931.5C 12.1667,923.5 12.1667,915.5 9.5,907.5C 12.1667,896.833 12.1667,886.167 9.5,875.5C 10.7583,862.222 11.425,848.889 11.5,835.5C 11.2772,819.478 10.6106,803.478 9.5,787.5C 10.1667,779.5 10.8333,771.5 11.5,763.5C 11.2728,758.103 10.6062,752.769 9.5,747.5C 11.3628,732.908 12.0295,718.242 11.5,703.5C 12.8333,703.5 14.1667,703.5 15.5,703.5C 16.1284,799.526 15.4617,895.526 13.5,991.5C 14.1764,1002.13 14.8431,1002.13 15.5,991.5C 18.1667,991.5 20.8333,991.5 23.5,991.5C 23.5,988.833 23.5,986.167 23.5,983.5C 26.1667,983.5 28.8333,983.5 31.5,983.5C 31.5,980.833 31.5,978.167 31.5,975.5C 28.8333,975.5 26.1667,975.5 23.5,975.5C 23.5,970.167 23.5,964.833 23.5,959.5C 26.1667,959.5 28.8333,959.5 31.5,959.5C 31.5,956.833 31.5,954.167 31.5,951.5C 34.1667,951.5 36.8333,951.5 39.5,951.5C 39.5,948.833 39.5,946.167 39.5,943.5C 35.8333,943.5 32.1667,943.5 28.5,943.5C 28.5,940.833 28.5,938.167 28.5,935.5C 29.5,935.5 30.5,935.5 31.5,935.5C 31.5,927.5 31.5,919.5 31.5,911.5C 30.5,911.5 29.5,911.5 28.5,911.5C 28.5,908.833 28.5,906.167 28.5,903.5C 27.5,903.5 26.5,903.5 25.5,903.5C 23.838,890.238 23.1714,876.904 23.5,863.5C 26.1667,863.5 28.8333,863.5 31.5,863.5C 31.5,858.167 31.5,852.833 31.5,847.5C 33.1667,847.5 34.8333,847.5 36.5,847.5C 36.5,844.833 36.5,842.167 36.5,839.5C 37.5,839.5 38.5,839.5 39.5,839.5C 39.5,836.833 39.5,834.167 39.5,831.5C 35.8333,831.5 32.1667,831.5 28.5,831.5C 28.5,828.833 28.5,826.167 28.5,823.5C 26.8333,823.5 25.1667,823.5 23.5,823.5C 23.5,815.5 23.5,807.5 23.5,799.5C 26.1667,799.5 28.8333,799.5 31.5,799.5C 31.5,791.5 31.5,783.5 31.5,775.5C 34.1667,775.5 36.8333,775.5 39.5,775.5C 39.5,772.833 39.5,770.167 39.5,767.5C 36.8333,767.5 34.1667,767.5 31.5,767.5C 31.5,762.167 31.5,756.833 31.5,751.5C 34.1667,751.5 36.8333,751.5 39.5,751.5C 39.5,743.5 39.5,735.5 39.5,727.5C 36.1667,727.5 32.8333,727.5 29.5,727.5C 31.3313,703.561 31.998,679.561 31.5,655.5C 34.1667,655.5 36.8333,655.5 39.5,655.5C 39.5,652.833 39.5,650.167 39.5,647.5C 36.8333,647.5 34.1667,647.5 31.5,647.5C 31.5,636.833 31.5,626.167 31.5,615.5C 34.1667,615.5 36.8333,615.5 39.5,615.5C 39.5,610.167 39.5,604.833 39.5,599.5C 36.8333,599.5 34.1667,599.5 31.5,599.5C 31.5,596.833 31.5,594.167 31.5,591.5C 34.1667,591.5 36.8333,591.5 39.5,591.5C 39.5,588.833 39.5,586.167 39.5,583.5C 36.8333,583.5 34.1667,583.5 31.5,583.5C 31.5,575.5 31.5,567.5 31.5,559.5C 34.1667,559.5 36.8333,559.5 39.5,559.5C 39.5,556.833 39.5,554.167 39.5,551.5C 38.5,551.5 37.5,551.5 36.5,551.5C 36.5,548.833 36.5,546.167 36.5,543.5C 37.5,543.5 38.5,543.5 39.5,543.5C 39.5,535.5 39.5,527.5 39.5,519.5C 36.8333,519.5 34.1667,519.5 31.5,519.5C 31.0052,507.419 31.6718,495.419 33.5,483.5C 31.6718,471.581 31.0052,459.581 31.5,447.5C 34.1667,447.5 36.8333,447.5 39.5,447.5C 39.5,442.167 39.5,436.833 39.5,431.5C 36.8333,431.5 34.1667,431.5 31.5,431.5C 31.5,402.167 31.5,372.833 31.5,343.5C 34.1667,343.5 36.8333,343.5 39.5,343.5C 39.5,338.167 39.5,332.833 39.5,327.5C 34.1667,327.5 28.8333,327.5 23.5,327.5C 23.2842,316.76 23.9509,306.094 25.5,295.5C 24.1667,295.5 22.8333,295.5 21.5,295.5C 21.5,292.833 21.5,290.167 21.5,287.5C 22.8333,287.5 24.1667,287.5 25.5,287.5C 24.1757,279.568 23.5091,271.568 23.5,263.5C 26.1667,263.5 28.8333,263.5 31.5,263.5C 31.5,247.5 31.5,231.5 31.5,215.5C 34.1667,215.5 36.8333,215.5 39.5,215.5C 39.5,212.833 39.5,210.167 39.5,207.5C 36.8333,207.5 34.1667,207.5 31.5,207.5C 31.5,204.833 31.5,202.167 31.5,199.5C 34.1667,199.5 36.8333,199.5 39.5,199.5C 39.5,191.5 39.5,183.5 39.5,175.5C 38.5,175.5 37.5,175.5 36.5,175.5C 36.5,167.5 36.5,159.5 36.5,151.5C 34.8333,151.5 33.1667,151.5 31.5,151.5C 31.5,146.167 31.5,140.833 31.5,135.5C 33.1667,135.5 34.8333,135.5 36.5,135.5C 36.5,132.833 36.5,130.167 36.5,127.5C 34.8333,127.5 33.1667,127.5 31.5,127.5C 31.5,116.833 31.5,106.167 31.5,95.5C 30.5,95.5 29.5,95.5 28.5,95.5C 28.5,92.8333 28.5,90.1667 28.5,87.5C 29.5,87.5 30.5,87.5 31.5,87.5C 31.5,66.1667 31.5,44.8333 31.5,23.5C 28.8333,23.5 26.1667,23.5 23.5,23.5C 23.5,20.8333 23.5,18.1667 23.5,15.5C 20.8333,15.5 18.1667,15.5 15.5,15.5C 15.5,58.1667 15.5,100.833 15.5,143.5C 14.1667,143.5 12.8333,143.5 11.5,143.5C 11.9659,112.804 11.2993,82.1376 9.5,51.5C 10.9978,36.8687 11.6645,22.202 11.5,7.5C 10.1667,7.5 8.83333,7.5 7.5,7.5C 7.5,4.83333 7.5,2.16667 7.5,-0.5 Z"/></g>
<g><path style="opacity:1" fill="#f4fbf4" d="M 359.5,207.5 C 362.167,207.5 364.833,207.5 367.5,207.5C 367.5,210.167 367.5,212.833 367.5,215.5C 370.167,215.5 372.833,215.5 375.5,215.5C 375.5,212.833 375.5,210.167 375.5,207.5C 383.5,207.5 391.5,207.5 399.5,207.5C 399.5,210.167 399.5,212.833 399.5,215.5C 394.167,215.5 388.833,215.5 383.5,215.5C 383.5,218.167 383.5,220.833 383.5,223.5C 404.833,223.5 426.167,223.5 447.5,223.5C 447.5,220.833 447.5,218.167 447.5,215.5C 450.167,215.5 452.833,215.5 455.5,215.5C 455.5,218.167 455.5,220.833 455.5,223.5C 460.833,223.5 466.167,223.5 471.5,223.5C 471.5,218.167 471.5,212.833 471.5,207.5C 474.167,207.5 476.833,207.5 479.5,207.5C 479.5,210.167 479.5,212.833 479.5,215.5C 482.167,215.5 484.833,215.5 487.5,215.5C 487.5,218.167 487.5,220.833 487.5,223.5C 490.167,223.5 492.833,223.5 495.5,223.5C 495.5,220.833 495.5,218.167 495.5,215.5C 508.833,215.5 522.167,215.5 535.5,215.5C 535.5,218.167 535.5,220.833 535.5,223.5C 556.833,223.5 578.167,223.5 599.5,223.5C 599.5,220.833 599.5,218.167 599.5,215.5C 604.833,215.5 610.167,215.5 615.5,215.5C 615.5,216.5 615.5,217.5 615.5,218.5C 618.167,218.5 620.833,218.5 623.5,218.5C 623.5,217.5 623.5,216.5 623.5,215.5C 626.167,215.5 628.833,215.5 631.5,215.5C 631.5,218.167 631.5,220.833 631.5,223.5C 642.167,223.5 652.833,223.5 663.5,223.5C 663.5,226.167 663.5,228.833 663.5,231.5C 668.833,231.5 674.167,231.5 679.5,231.5C 679.5,234.167 679.5,236.833 679.5,239.5C 682.167,239.5 684.833,239.5 687.5,239.5C 687.5,242.167 687.5,244.833 687.5,247.5C 689.167,247.5 690.833,247.5 692.5,247.5C 692.5,250.167 692.5,252.833 692.5,255.5C 698.833,255.5 705.167,255.5 711.5,255.5C 711.5,260.833 711.5,266.167 711.5,271.5C 714.167,271.5 716.833,271.5 719.5,271.5C 719.5,274.167 719.5,276.833 719.5,279.5C 722.167,279.5 724.833,279.5 727.5,279.5C 727.5,282.167 727.5,284.833 727.5,287.5C 730.167,287.5 732.833,287.5 735.5,287.5C 735.5,290.167 735.5,292.833 735.5,295.5C 737.167,295.5 738.833,295.5 740.5,295.5C 740.5,298.167 740.5,300.833 740.5,303.5C 741.5,303.5 742.5,303.5 743.5,303.5C 743.5,306.167 743.5,308.833 743.5,311.5C 745.167,311.5 746.833,311.5 748.5,311.5C 748.5,314.167 748.5,316.833 748.5,319.5C 749.5,319.5 750.5,319.5 751.5,319.5C 751.5,322.167 751.5,324.833 751.5,327.5C 753.167,327.5 754.833,327.5 756.5,327.5C 756.5,330.167 756.5,332.833 756.5,335.5C 757.5,335.5 758.5,335.5 759.5,335.5C 759.5,340.833 759.5,346.167 759.5,351.5C 761.167,351.5 762.833,351.5 764.5,351.5C 764.5,354.167 764.5,356.833 764.5,359.5C 765.5,359.5 766.5,359.5 767.5,359.5C 767.5,362.167 767.5,364.833 767.5,367.5C 763.833,367.5 760.167,367.5 756.5,367.5C 756.5,370.167 756.5,372.833 756.5,375.5C 757.5,375.5 758.5,375.5 759.5,375.5C 759.5,378.167 759.5,380.833 759.5,383.5C 758.5,383.5 757.5,383.5 756.5,383.5C 756.5,386.167 756.5,388.833 756.5,391.5C 757.5,391.5 758.5,391.5 759.5,391.5C 759.5,399.5 759.5,407.5 759.5,415.5C 758.5,415.5 757.5,415.5 756.5,415.5C 756.5,418.167 756.5,420.833 756.5,423.5C 754.833,423.5 753.167,423.5 751.5,423.5C 751.5,426.167 751.5,428.833 751.5,431.5C 750.5,431.5 749.5,431.5 748.5,431.5C 748.5,434.167 748.5,436.833 748.5,439.5C 746.833,439.5 745.167,439.5 743.5,439.5C 743.5,444.833 743.5,450.167 743.5,455.5C 740.833,455.5 738.167,455.5 735.5,455.5C 735.5,460.833 735.5,466.167 735.5,471.5C 732.833,471.5 730.167,471.5 727.5,471.5C 727.5,474.167 727.5,476.833 727.5,479.5C 729.167,479.5 730.833,479.5 732.5,479.5C 732.5,482.167 732.5,484.833 732.5,487.5C 736.167,487.5 739.833,487.5 743.5,487.5C 743.5,490.167 743.5,492.833 743.5,495.5C 746.167,495.5 748.833,495.5 751.5,495.5C 751.5,498.167 751.5,500.833 751.5,503.5C 754.167,503.5 756.833,503.5 759.5,503.5C 759.5,506.167 759.5,508.833 759.5,511.5C 762.167,511.5 764.833,511.5 767.5,511.5C 767.5,516.833 767.5,522.167 767.5,527.5C 770.167,527.5 772.833,527.5 775.5,527.5C 775.5,530.167 775.5,532.833 775.5,535.5C 778.167,535.5 780.833,535.5 783.5,535.5C 783.5,540.833 783.5,546.167 783.5,551.5C 785.167,551.5 786.833,551.5 788.5,551.5C 788.5,559.5 788.5,567.5 788.5,575.5C 789.5,575.5 790.5,575.5 791.5,575.5C 791.5,578.167 791.5,580.833 791.5,583.5C 790.5,583.5 789.5,583.5 788.5,583.5C 788.5,586.167 788.5,588.833 788.5,591.5C 789.5,591.5 790.5,591.5 791.5,591.5C 791.5,612.833 791.5,634.167 791.5,655.5C 790.5,655.5 789.5,655.5 788.5,655.5C 788.5,658.167 788.5,660.833 788.5,663.5C 787.5,663.5 786.5,663.5 785.5,663.5C 784.833,674.167 784.167,684.833 783.5,695.5C 780.833,695.5 778.167,695.5 775.5,695.5C 775.5,698.167 775.5,700.833 775.5,703.5C 772.833,703.5 770.167,703.5 767.5,703.5C 767.5,706.167 767.5,708.833 767.5,711.5C 766.5,711.5 765.5,711.5 764.5,711.5C 764.5,714.167 764.5,716.833 764.5,719.5C 762.833,719.5 761.167,719.5 759.5,719.5C 759.828,724.875 759.495,730.208 758.5,735.5C 757.52,732.914 757.187,730.247 757.5,727.5C 756.167,727.5 754.833,727.5 753.5,727.5C 753.5,730.167 753.5,732.833 753.5,735.5C 750.167,735.5 746.833,735.5 743.5,735.5C 743.5,739.833 743.5,744.167 743.5,748.5C 740.833,748.5 738.167,748.5 735.5,748.5C 735.5,752.167 735.5,755.833 735.5,759.5C 727.5,759.5 719.5,759.5 711.5,759.5C 711.5,762.167 711.5,764.833 711.5,767.5C 708.833,767.5 706.167,767.5 703.5,767.5C 703.5,770.167 703.5,772.833 703.5,775.5C 698.167,775.5 692.833,775.5 687.5,775.5C 687.5,778.167 687.5,780.833 687.5,783.5C 676.833,783.5 666.167,783.5 655.5,783.5C 655.5,786.167 655.5,788.833 655.5,791.5C 647.5,791.5 639.5,791.5 631.5,791.5C 631.5,794.167 631.5,796.833 631.5,799.5C 620.833,799.5 610.167,799.5 599.5,799.5C 599.5,802.167 599.5,804.833 599.5,807.5C 591.5,807.5 583.5,807.5 575.5,807.5C 575.5,806.5 575.5,805.5 575.5,804.5C 572.833,804.5 570.167,804.5 567.5,804.5C 567.5,805.5 567.5,806.5 567.5,807.5C 559.5,807.5 551.5,807.5 543.5,807.5C 543.5,804.833 543.5,802.167 543.5,799.5C 540.833,799.5 538.167,799.5 535.5,799.5C 535.5,802.167 535.5,804.833 535.5,807.5C 532.833,807.5 530.167,807.5 527.5,807.5C 527.5,804.833 527.5,802.167 527.5,799.5C 524.833,799.5 522.167,799.5 519.5,799.5C 519.5,802.167 519.5,804.833 519.5,807.5C 511.5,807.5 503.5,807.5 495.5,807.5C 495.5,804.833 495.5,802.167 495.5,799.5C 490.167,799.5 484.833,799.5 479.5,799.5C 479.5,802.167 479.5,804.833 479.5,807.5C 476.833,807.5 474.167,807.5 471.5,807.5C 471.5,804.833 471.5,802.167 471.5,799.5C 466.167,799.5 460.833,799.5 455.5,799.5C 455.5,798.5 455.5,797.5 455.5,796.5C 450.167,796.5 444.833,796.5 439.5,796.5C 439.5,797.5 439.5,798.5 439.5,799.5C 436.833,799.5 434.167,799.5 431.5,799.5C 431.5,798.5 431.5,797.5 431.5,796.5C 423.5,796.5 415.5,796.5 407.5,796.5C 407.5,797.5 407.5,798.5 407.5,799.5C 404.833,799.5 402.167,799.5 399.5,799.5C 399.5,802.167 399.5,804.833 399.5,807.5C 391.5,807.5 383.5,807.5 375.5,807.5C 375.5,804.833 375.5,802.167 375.5,799.5C 370.167,799.5 364.833,799.5 359.5,799.5C 359.5,802.167 359.5,804.833 359.5,807.5C 332.833,807.5 306.167,807.5 279.5,807.5C 279.5,810.167 279.5,812.833 279.5,815.5C 276.833,815.5 274.167,815.5 271.5,815.5C 271.5,812.833 271.5,810.167 271.5,807.5C 268.833,807.5 266.167,807.5 263.5,807.5C 263.5,804.833 263.5,802.167 263.5,799.5C 258.167,799.5 252.833,799.5 247.5,799.5C 247.5,796.833 247.5,794.167 247.5,791.5C 242.167,791.5 236.833,791.5 231.5,791.5C 231.5,788.833 231.5,786.167 231.5,783.5C 228.833,783.5 226.167,783.5 223.5,783.5C 223.5,780.833 223.5,778.167 223.5,775.5C 226.167,775.5 228.833,775.5 231.5,775.5C 231.5,770.167 231.5,764.833 231.5,759.5C 228.833,759.5 226.167,759.5 223.5,759.5C 223.5,754.167 223.5,748.833 223.5,743.5C 224.5,743.5 225.5,743.5 226.5,743.5C 226.5,740.833 226.5,738.167 226.5,735.5C 222.167,735.5 217.833,735.5 213.5,735.5C 215.162,722.238 215.829,708.904 215.5,695.5C 220.833,695.5 226.167,695.5 231.5,695.5C 231.5,692.833 231.5,690.167 231.5,687.5C 234.167,687.5 236.833,687.5 239.5,687.5C 239.5,684.833 239.5,682.167 239.5,679.5C 242.167,679.5 244.833,679.5 247.5,679.5C 247.5,676.833 247.5,674.167 247.5,671.5C 249.5,671.5 251.5,671.5 253.5,671.5C 254.824,663.568 255.491,655.568 255.5,647.5C 258.167,647.5 260.833,647.5 263.5,647.5C 263.5,639.5 263.5,631.5 263.5,623.5C 260.833,623.5 258.167,623.5 255.5,623.5C 255.478,619.407 254.811,615.407 253.5,611.5C 255.154,604.934 255.821,598.267 255.5,591.5C 253.833,591.5 252.167,591.5 250.5,591.5C 250.5,588.833 250.5,586.167 250.5,583.5C 249.5,583.5 248.5,583.5 247.5,583.5C 247.5,578.167 247.5,572.833 247.5,567.5C 250.167,567.5 252.833,567.5 255.5,567.5C 255.5,564.833 255.5,562.167 255.5,559.5C 256.5,559.5 257.5,559.5 258.5,559.5C 258.5,556.833 258.5,554.167 258.5,551.5C 257.5,551.5 256.5,551.5 255.5,551.5C 255.5,548.833 255.5,546.167 255.5,543.5C 252.833,543.5 250.167,543.5 247.5,543.5C 247.5,540.833 247.5,538.167 247.5,535.5C 248.5,535.5 249.5,535.5 250.5,535.5C 250.5,532.833 250.5,530.167 250.5,527.5C 249.5,527.5 248.5,527.5 247.5,527.5C 247.494,519.452 246.828,511.452 245.5,503.5C 246.828,495.548 247.494,487.548 247.5,479.5C 250.167,479.5 252.833,479.5 255.5,479.5C 255.5,476.833 255.5,474.167 255.5,471.5C 258.167,471.5 260.833,471.5 263.5,471.5C 263.5,468.833 263.5,466.167 263.5,463.5C 266.167,463.5 268.833,463.5 271.5,463.5C 271.5,460.833 271.5,458.167 271.5,455.5C 274.167,455.5 276.833,455.5 279.5,455.5C 279.5,452.833 279.5,450.167 279.5,447.5C 282.167,447.5 284.833,447.5 287.5,447.5C 287.5,442.167 287.5,436.833 287.5,431.5C 290.167,431.5 292.833,431.5 295.5,431.5C 295.491,423.432 294.824,415.432 293.5,407.5C 292.167,407.5 290.833,407.5 289.5,407.5C 288.833,418.167 288.167,418.167 287.5,407.5C 284.833,407.5 282.167,407.5 279.5,407.5C 279.5,402.167 279.5,396.833 279.5,391.5C 274.167,391.5 268.833,391.5 263.5,391.5C 263.5,388.833 263.5,386.167 263.5,383.5C 258.167,383.5 252.833,383.5 247.5,383.5C 247.5,378.167 247.5,372.833 247.5,367.5C 242.167,367.5 236.833,367.5 231.5,367.5C 231.5,364.833 231.5,362.167 231.5,359.5C 229.833,359.5 228.167,359.5 226.5,359.5C 226.5,356.833 226.5,354.167 226.5,351.5C 222.833,351.5 219.167,351.5 215.5,351.5C 216.029,336.758 215.363,322.092 213.5,307.5C 214.811,303.593 215.478,299.593 215.5,295.5C 212.833,295.5 210.167,295.5 207.5,295.5C 207.5,290.167 207.5,284.833 207.5,279.5C 212.833,279.5 218.167,279.5 223.5,279.5C 223.5,274.167 223.5,268.833 223.5,263.5C 226.167,263.5 228.833,263.5 231.5,263.5C 231.5,260.833 231.5,258.167 231.5,255.5C 234.167,255.5 236.833,255.5 239.5,255.5C 239.5,252.833 239.5,250.167 239.5,247.5C 242.167,247.5 244.833,247.5 247.5,247.5C 247.5,244.833 247.5,242.167 247.5,239.5C 252.833,239.5 258.167,239.5 263.5,239.5C 263.5,236.833 263.5,234.167 263.5,231.5C 266.167,231.5 268.833,231.5 271.5,231.5C 271.5,228.833 271.5,226.167 271.5,223.5C 276.833,223.5 282.167,223.5 287.5,223.5C 287.5,220.833 287.5,218.167 287.5,215.5C 311.5,215.5 335.5,215.5 359.5,215.5C 359.5,212.833 359.5,210.167 359.5,207.5 Z"/></g>
<g><path style="opacity:1" fill="#e1f0ee" d="M 633.5,265.5 C 620.794,261.659 607.794,259.159 594.5,258C 570.491,257.45 546.491,257.783 522.5,259C 478.92,263.096 435.253,264.762 391.5,264C 372.759,262.661 354.093,260.661 335.5,258C 314.779,255.93 295.779,260.597 278.5,272C 265.243,282.941 260.91,296.774 265.5,313.5C 263.046,310.67 261.38,307.337 260.5,303.5C 262.032,295.378 263.865,287.378 266,279.5C 269.025,277.593 271.692,275.259 274,272.5C 274.333,272.833 274.667,273.167 275,273.5C 276.4,270.098 278.567,267.264 281.5,265C 287.568,264.62 292.901,262.62 297.5,259C 311.655,255.734 325.988,254.734 340.5,256C 352.964,257.768 365.464,258.268 378,257.5C 398.321,260.864 418.821,261.364 439.5,259C 440,258.5 440.5,258 441,257.5C 442.571,257.25 444.071,257.917 445.5,259.5C 448.132,258.56 450.798,258.393 453.5,259C 450.063,259.649 449.896,260.149 453,260.5C 456.383,258.697 459.55,258.697 462.5,260.5C 467.144,258.716 471.977,258.716 477,260.5C 488.211,258.196 499.211,257.529 510,258.5C 544.188,254.934 578.521,254.6 613,257.5C 613.772,257.355 614.439,257.022 615,256.5C 615.318,258.061 616.151,259.228 617.5,260C 621.167,260.333 624.833,260.667 628.5,261C 630.66,261.996 632.327,263.496 633.5,265.5 Z"/></g>
<g><path style="opacity:1" fill="#022334" d="M 633.5,265.5 C 633.833,265.5 634.167,265.5 634.5,265.5C 661.194,274.348 684.194,289.015 703.5,309.5C 722.573,335.802 729.406,365.136 724,397.5C 721.597,407.459 718.43,417.125 714.5,426.5C 709.422,434.964 703.588,442.964 697,450.5C 685.603,460.738 674.103,470.738 662.5,480.5C 659.868,482.113 657.202,483.78 654.5,485.5C 653.167,486.167 653.167,486.833 654.5,487.5C 672.912,496.577 691.246,505.744 709.5,515C 717.284,520.286 724.618,526.12 731.5,532.5C 754.104,558.477 764.271,588.811 762,623.5C 757.002,672.03 733.169,707.864 690.5,731C 670.348,742.242 649.015,750.409 626.5,755.5C 604.425,760.218 582.092,762.551 559.5,762.5C 549.5,762.5 539.5,762.5 529.5,762.5C 513.138,759.879 496.471,758.879 479.5,759.5C 475.833,759.5 472.167,759.5 468.5,759.5C 465.695,758.681 462.695,758.181 459.5,758C 436.663,757.17 413.996,757.337 391.5,758.5C 383.316,758.174 375.316,758.508 367.5,759.5C 360.159,759.334 352.826,759.5 345.5,760C 331.372,761.863 317.205,763.363 303,764.5C 296.65,764.536 290.484,763.536 284.5,761.5C 264.027,748.942 259.86,732.275 272,711.5C 276.865,705.984 282.698,701.817 289.5,699C 298.514,696.442 307.18,693.109 315.5,689C 320.475,684.882 323.808,679.715 325.5,673.5C 331.033,657.998 333.533,641.998 333,625.5C 330.785,620.9 327.952,616.734 324.5,613C 320.27,611.956 316.103,610.789 312,609.5C 309.536,605.566 307.369,601.566 305.5,597.5C 304.671,594.531 304.505,591.531 305,588.5C 308.162,586.682 310.828,584.348 313,581.5C 311.641,572.953 312.474,564.62 315.5,556.5C 312.952,552.284 309.285,549.617 304.5,548.5C 302.941,544.381 301.107,540.381 299,536.5C 298.333,535.5 298.333,534.5 299,533.5C 302.787,528.044 306.954,522.877 311.5,518C 316.021,517.585 320.021,518.918 323.5,522C 328.267,522.299 332.434,520.799 336,517.5C 336.409,515.305 335.909,513.305 334.5,511.5C 334.5,510.833 334.5,510.167 334.5,509.5C 336.467,509.739 338.301,509.406 340,508.5C 340.667,469.5 340.667,430.5 340,391.5C 339.582,375.551 333.415,362.385 321.5,352C 318.473,350.487 315.473,348.987 312.5,347.5C 301.741,342.955 291.074,338.122 280.5,333C 273.787,327.79 268.787,321.29 265.5,313.5C 260.91,296.774 265.243,282.941 278.5,272C 295.779,260.597 314.779,255.93 335.5,258C 354.093,260.661 372.759,262.661 391.5,264C 435.253,264.762 478.92,263.096 522.5,259C 546.491,257.783 570.491,257.45 594.5,258C 607.794,259.159 620.794,261.659 633.5,265.5 Z"/></g>
<g><path style="opacity:1" fill="#e6f2f3" d="M 634.5,265.5 C 638.746,265.895 642.913,265.895 647,265.5C 650.118,265.944 651.951,267.611 652.5,270.5C 658.675,271.34 664.175,273.673 669,277.5C 669.333,277.167 669.667,276.833 670,276.5C 670.465,277.931 671.299,279.097 672.5,280C 674.81,280.497 677.143,280.663 679.5,280.5C 679.555,284.846 681.388,288.179 685,290.5C 686,289.833 687,289.167 688,288.5C 688.5,289.667 689.333,290.5 690.5,291C 690.167,291.333 689.833,291.667 689.5,292C 690.766,292.309 691.933,292.809 693,293.5C 693.333,293.167 693.667,292.833 694,292.5C 694.346,294.218 694.846,295.885 695.5,297.5C 695.291,298.086 694.957,298.586 694.5,299C 695.943,300.067 697.276,301.234 698.5,302.5C 699.086,302.291 699.586,301.957 700,301.5C 701.993,303.818 703.159,306.484 703.5,309.5C 684.194,289.015 661.194,274.348 634.5,265.5 Z"/></g>
<g><path style="opacity:1" fill="#e6f4ea" d="M 481.5,331.5 C 479.801,330.489 478.301,329.155 477,327.5C 474.842,326.549 472.675,326.049 470.5,326C 468.333,327.5 466.167,329 464,330.5C 463.55,334.188 463.717,337.854 464.5,341.5C 474.337,340.458 484.004,340.792 493.5,342.5C 482.305,341.404 471.971,343.737 462.5,349.5C 460.797,350.66 460.131,349.993 460.5,347.5C 455.602,347.454 451.602,345.621 448.5,342C 446.392,341.64 444.392,340.973 442.5,340C 440.288,339.211 438.288,339.378 436.5,340.5C 436.158,341.338 435.492,341.672 434.5,341.5C 432.83,341.751 431.33,342.418 430,343.5C 427.463,346.86 425.963,350.527 425.5,354.5C 425.234,350.395 425.734,346.395 427,342.5C 430.213,340.447 433.379,338.28 436.5,336C 442.969,335.564 448.302,337.898 452.5,343C 454.473,343.495 456.473,343.662 458.5,343.5C 457.997,338.828 457.831,334.161 458,329.5C 463.422,325.608 469.255,322.275 475.5,319.5C 478.038,323.243 480.038,327.243 481.5,331.5 Z"/></g>
<g><path style="opacity:1" fill="#0c2526" d="M 529.5,326.5 C 531.411,326.574 532.578,327.574 533,329.5C 533.499,334.155 533.666,338.821 533.5,343.5C 534.675,343.719 535.675,343.386 536.5,342.5C 537.074,340.941 537.74,339.441 538.5,338C 542.581,337.961 546.415,337.128 550,335.5C 550.765,335.57 551.265,335.903 551.5,336.5C 551.38,337.586 550.713,338.253 549.5,338.5C 542.473,339.197 537.806,342.863 535.5,349.5C 535.167,349.5 534.833,349.5 534.5,349.5C 533.685,348.163 532.518,347.163 531,346.5C 530.555,343.322 530.722,340.155 531.5,337C 530.724,333.511 530.058,330.011 529.5,326.5 Z"/></g>
<g><path style="opacity:1" fill="#012134" d="M 493.5,342.5 C 499.59,342.985 505.59,343.985 511.5,345.5C 513.665,347.793 516.331,349.627 519.5,351C 521.081,352.828 522.415,354.828 523.5,357C 530.216,356.439 532.216,359.273 529.5,365.5C 528.575,364.359 527.741,364.359 527,365.5C 526.333,364.833 525.667,364.167 525,363.5C 523.667,363.5 522.333,363.5 521,363.5C 520.333,366.167 519.667,366.167 519,363.5C 517.745,364.211 516.579,365.044 515.5,366C 516.108,366.87 516.941,367.37 518,367.5C 522.16,367.336 526.327,367.336 530.5,367.5C 530.921,371.2 531.588,374.867 532.5,378.5C 533.597,376.771 534.763,375.104 536,373.5C 536.941,375.943 538.275,378.61 540,381.5C 541.113,382.305 542.279,382.972 543.5,383.5C 547.643,386.782 549.977,391.116 550.5,396.5C 549.698,404.422 549.198,412.422 549,420.5C 546.077,427.218 542.077,433.218 537,438.5C 535.435,436.535 534.268,434.369 533.5,432C 532.207,431.51 530.873,431.343 529.5,431.5C 529.586,433.677 530.253,435.677 531.5,437.5C 530.873,438.417 530.539,439.417 530.5,440.5C 527.09,439.434 523.923,439.434 521,440.5C 519.212,445.494 517.545,450.828 516,456.5C 506.247,463.526 495.414,466.026 483.5,464C 479.5,463.333 475.5,462.667 471.5,462C 466.244,460.279 461.244,458.112 456.5,455.5C 455.833,455.5 455.167,455.5 454.5,455.5C 452.167,452.5 449.5,449.833 446.5,447.5C 446.611,446.883 446.944,446.383 447.5,446C 445.667,443.5 443.833,441 442,438.5C 441.348,433.134 440.515,427.801 439.5,422.5C 438.431,421.09 437.097,420.09 435.5,419.5C 435.5,418.5 435.5,417.5 435.5,416.5C 435.052,405.395 435.886,394.395 438,383.5C 441.62,377.934 446.786,374.768 453.5,374C 455.5,371.622 457.667,369.455 460,367.5C 462.259,362.439 463.092,357.105 462.5,351.5C 462.5,350.833 462.5,350.167 462.5,349.5C 471.971,343.737 482.305,341.404 493.5,342.5 Z"/></g>
<g><path style="opacity:1" fill="#e4f5dd" d="M 529.5,326.5 C 530.058,330.011 530.724,333.511 531.5,337C 530.722,340.155 530.555,343.322 531,346.5C 532.518,347.163 533.685,348.163 534.5,349.5C 533.833,351.819 533.666,354.153 534,356.5C 536.725,362.283 539.725,367.949 543,373.5C 543.49,374.793 543.657,376.127 543.5,377.5C 546.176,378.008 548.843,378.175 551.5,378C 553.578,375.364 555.911,372.864 558.5,370.5C 562.159,364.761 563.493,358.428 562.5,351.5C 560.123,351.216 557.956,351.216 556,351.5C 555.683,349.699 555.016,349.366 554,350.5C 554.832,345.001 552.498,342.334 547,342.5C 541.948,342.303 539.114,344.637 538.5,349.5C 537.5,349.5 536.5,349.5 535.5,349.5C 537.806,342.863 542.473,339.197 549.5,338.5C 550.713,338.253 551.38,337.586 551.5,336.5C 553.371,336.859 554.871,337.859 556,339.5C 557.566,344.245 560.733,346.912 565.5,347.5C 568.11,359.228 564.943,368.895 556,376.5C 555.51,377.793 555.343,379.127 555.5,380.5C 555.051,382.003 553.551,383.003 551,383.5C 548.73,382.14 546.23,381.473 543.5,381.5C 540.487,373.977 536.987,366.643 533,359.5C 526.885,353.194 519.719,348.528 511.5,345.5C 505.59,343.985 499.59,342.985 493.5,342.5C 484.004,340.792 474.337,340.458 464.5,341.5C 463.717,337.854 463.55,334.188 464,330.5C 466.167,329 468.333,327.5 470.5,326C 472.675,326.049 474.842,326.549 477,327.5C 478.301,329.155 479.801,330.489 481.5,331.5C 483.693,335.043 486.36,335.377 489.5,332.5C 492.312,328.355 493.646,323.688 493.5,318.5C 503.557,318.135 513.557,318.635 523.5,320C 525.734,322.063 527.734,324.229 529.5,326.5 Z"/></g>
<g><path style="opacity:1" fill="#e8fec5" d="M 534.5,349.5 C 534.833,349.5 535.167,349.5 535.5,349.5C 536.5,349.5 537.5,349.5 538.5,349.5C 539.114,344.637 541.948,342.303 547,342.5C 552.498,342.334 554.832,345.001 554,350.5C 555.016,349.366 555.683,349.699 556,351.5C 557.956,351.216 560.123,351.216 562.5,351.5C 563.493,358.428 562.159,364.761 558.5,370.5C 555.911,372.864 553.578,375.364 551.5,378C 548.843,378.175 546.176,378.008 543.5,377.5C 543.657,376.127 543.49,374.793 543,373.5C 539.725,367.949 536.725,362.283 534,356.5C 533.666,354.153 533.833,351.819 534.5,349.5 Z"/></g>
<g><path style="opacity:1" fill="#e8fec1" d="M 520.5,323.5 C 522.515,324.924 524.848,325.59 527.5,325.5C 527.412,329.306 528.079,332.972 529.5,336.5C 529.137,337.183 528.804,337.85 528.5,338.5C 527.686,340.631 527.186,342.964 527,345.5C 526,344.167 525,344.167 524,345.5C 523.683,343.699 523.016,343.366 522,344.5C 516.056,341.889 510.223,339.056 504.5,336C 503.207,335.51 501.873,335.343 500.5,335.5C 500.351,334.448 500.517,333.448 501,332.5C 501.333,332.833 501.667,333.167 502,333.5C 505.124,332.439 508.291,331.439 511.5,330.5C 508.721,328.778 505.721,327.611 502.5,327C 508.573,326.125 514.573,324.959 520.5,323.5 Z"/></g>
<g><path style="opacity:1" fill="#ebfdcc" d="M 520.5,323.5 C 514.573,324.959 508.573,326.125 502.5,327C 505.721,327.611 508.721,328.778 511.5,330.5C 508.291,331.439 505.124,332.439 502,333.5C 501.667,333.167 501.333,332.833 501,332.5C 500.517,333.448 500.351,334.448 500.5,335.5C 501.873,335.343 503.207,335.51 504.5,336C 510.223,339.056 516.056,341.889 522,344.5C 523.016,343.366 523.683,343.699 524,345.5C 525,344.167 526,344.167 527,345.5C 527.186,342.964 527.686,340.631 528.5,338.5C 528.813,341.247 528.48,343.914 527.5,346.5C 526.833,346.833 526.167,347.167 525.5,347.5C 521.171,345.775 516.838,343.942 512.5,342C 505.482,341.22 499.149,338.886 493.5,335C 494.214,333.657 493.88,332.324 492.5,331C 494.377,328.874 495.377,326.374 495.5,323.5C 504.029,323.269 512.362,323.269 520.5,323.5 Z"/></g>
<g><path style="opacity:1" fill="#e7feb7" d="M 436.5,340.5 C 438.451,340.227 439.951,340.893 441,342.5C 441.333,342.167 441.667,341.833 442,341.5C 442.813,343.436 443.313,345.436 443.5,347.5C 447.924,349.213 452.591,349.88 457.5,349.5C 457.665,352.85 457.498,356.183 457,359.5C 455.559,360.87 453.892,361.87 452,362.5C 451.319,364.895 450.485,367.228 449.5,369.5C 447.787,369.879 446.787,370.879 446.5,372.5C 441.534,371.903 437.034,373.236 433,376.5C 432.383,375.551 432.549,374.718 433.5,374C 428.532,371.076 425.532,366.742 424.5,361C 426.797,356.776 428.297,352.276 429,347.5C 431.09,345.584 432.923,343.584 434.5,341.5C 435.492,341.672 436.158,341.338 436.5,340.5 Z"/></g>
<g><path style="opacity:1" fill="#e5fbc8" d="M 436.5,340.5 C 438.288,339.378 440.288,339.211 442.5,340C 444.392,340.973 446.392,341.64 448.5,342C 451.602,345.621 455.602,347.454 460.5,347.5C 460.131,349.993 460.797,350.66 462.5,349.5C 462.5,350.167 462.5,350.833 462.5,351.5C 461.679,354.641 461.179,357.975 461,361.5C 460.303,363.584 459.136,365.251 457.5,366.5C 455.883,367.038 454.216,367.371 452.5,367.5C 452.67,368.822 452.337,369.989 451.5,371C 449.753,371.352 448.086,371.852 446.5,372.5C 446.787,370.879 447.787,369.879 449.5,369.5C 450.485,367.228 451.319,364.895 452,362.5C 453.892,361.87 455.559,360.87 457,359.5C 457.498,356.183 457.665,352.85 457.5,349.5C 452.591,349.88 447.924,349.213 443.5,347.5C 443.313,345.436 442.813,343.436 442,341.5C 441.667,341.833 441.333,342.167 441,342.5C 439.951,340.893 438.451,340.227 436.5,340.5 Z"/></g>
<g><path style="opacity:1" fill="#09232d" d="M 511.5,345.5 C 519.719,348.528 526.885,353.194 533,359.5C 536.987,366.643 540.487,373.977 543.5,381.5C 543.5,382.167 543.5,382.833 543.5,383.5C 542.279,382.972 541.113,382.305 540,381.5C 538.275,378.61 536.941,375.943 536,373.5C 534.763,375.104 533.597,376.771 532.5,378.5C 531.588,374.867 530.921,371.2 530.5,367.5C 526.327,367.336 522.16,367.336 518,367.5C 516.941,367.37 516.108,366.87 515.5,366C 516.579,365.044 517.745,364.211 519,363.5C 519.667,366.167 520.333,366.167 521,363.5C 522.333,363.5 523.667,363.5 525,363.5C 525.667,364.167 526.333,364.833 527,365.5C 527.741,364.359 528.575,364.359 529.5,365.5C 532.216,359.273 530.216,356.439 523.5,357C 522.415,354.828 521.081,352.828 519.5,351C 516.331,349.627 513.665,347.793 511.5,345.5 Z"/></g>
<g><path style="opacity:1" fill="#e9f7f4" d="M 312.5,347.5 C 315.473,348.987 318.473,350.487 321.5,352C 333.415,362.385 339.582,375.551 340,391.5C 340.667,430.5 340.667,469.5 340,508.5C 338.301,509.406 336.467,509.739 334.5,509.5C 336.767,507.407 338.1,504.741 338.5,501.5C 337.688,496.524 337.021,491.524 336.5,486.5C 336.991,457.696 336.991,429.029 336.5,400.5C 334.943,395.354 333.943,390.021 333.5,384.5C 332.284,383.998 331.117,383.665 330,383.5C 330.369,375.886 329.702,368.219 328,360.5C 324.954,359.035 322.121,357.201 319.5,355C 320.833,354.333 320.833,353.667 319.5,353C 315.571,353.051 313.238,351.218 312.5,347.5 Z"/></g>
<g><path style="opacity:1" fill="#e5fac7" d="M 434.5,341.5 C 432.923,343.584 431.09,345.584 429,347.5C 428.297,352.276 426.797,356.776 424.5,361C 425.532,366.742 428.532,371.076 433.5,374C 432.549,374.718 432.383,375.551 433,376.5C 437.034,373.236 441.534,371.903 446.5,372.5C 443.785,374.072 440.785,375.072 437.5,375.5C 435.404,379.886 433.404,384.219 431.5,388.5C 431.475,385.821 430.142,384.488 427.5,384.5C 427.5,385.5 427.5,386.5 427.5,387.5C 421.311,387.785 415.311,388.785 409.5,390.5C 409.369,389.624 409.702,388.957 410.5,388.5C 413.127,387.942 415.46,386.942 417.5,385.5C 419.924,385.808 422.257,385.474 424.5,384.5C 425.833,381.833 427.167,379.167 428.5,376.5C 425.042,372.571 422.376,368.238 420.5,363.5C 420.343,362.127 420.51,360.793 421,359.5C 423.415,358.589 424.915,356.922 425.5,354.5C 425.963,350.527 427.463,346.86 430,343.5C 431.33,342.418 432.83,341.751 434.5,341.5 Z"/></g>
<g><path style="opacity:1" fill="#0e2926" d="M 462.5,351.5 C 463.092,357.105 462.259,362.439 460,367.5C 457.667,369.455 455.5,371.622 453.5,374C 446.786,374.768 441.62,377.934 438,383.5C 435.886,394.395 435.052,405.395 435.5,416.5C 433.012,406.696 432.846,396.696 435,386.5C 436.54,382.581 438.707,379.081 441.5,376C 448.635,375.609 453.969,372.442 457.5,366.5C 459.136,365.251 460.303,363.584 461,361.5C 461.179,357.975 461.679,354.641 462.5,351.5 Z"/></g>
<g><path style="opacity:1" fill="#0e272b" d="M 420.5,363.5 C 422.376,368.238 425.042,372.571 428.5,376.5C 427.167,379.167 425.833,381.833 424.5,384.5C 422.257,385.474 419.924,385.808 417.5,385.5C 414.813,385.336 412.146,385.503 409.5,386C 402.96,393.964 400.627,403.13 402.5,413.5C 401.25,413.577 400.417,414.244 400,415.5C 399.333,409.167 399.333,402.833 400,396.5C 402.588,393.411 404.421,389.911 405.5,386C 408.526,383.805 411.859,382.305 415.5,381.5C 415.449,378.937 415.783,376.271 416.5,373.5C 417.484,376.428 417.817,379.428 417.5,382.5C 425.283,380.111 426.45,375.778 421,369.5C 420.505,367.527 420.338,365.527 420.5,363.5 Z"/></g>
<g><path style="opacity:1" fill="#1b3718" d="M 495.5,383.5 C 500.898,383.912 504.565,386.579 506.5,391.5C 506.167,391.5 505.833,391.5 505.5,391.5C 502.931,387.882 499.597,385.215 495.5,383.5 Z"/></g>
<g><path style="opacity:1" fill="#f3faf7" d="M 555.5,380.5 C 555.511,382.017 556.177,383.184 557.5,384C 563.167,384.333 568.833,384.667 574.5,385C 575.574,385.739 576.241,386.739 576.5,388C 574.173,390.482 572.507,393.316 571.5,396.5C 569.782,398.223 568.449,400.223 567.5,402.5C 564.802,400.729 561.969,399.063 559,397.5C 557.686,398.313 556.519,399.313 555.5,400.5C 554.868,403.102 553.868,405.436 552.5,407.5C 552.57,403.575 551.903,399.909 550.5,396.5C 549.977,391.116 547.643,386.782 543.5,383.5C 543.5,382.833 543.5,382.167 543.5,381.5C 546.23,381.473 548.73,382.14 551,383.5C 553.551,383.003 555.051,382.003 555.5,380.5 Z"/></g>
<g><path style="opacity:1" fill="#e5feb8" d="M 431.5,388.5 C 431.5,392.5 431.5,396.5 431.5,400.5C 431.666,407.841 431.5,415.174 431,422.5C 430.333,423.167 429.667,423.833 429,424.5C 427.715,424.402 426.549,424.402 425.5,424.5C 417.45,423.607 410.617,420.273 405,414.5C 404.333,409.5 404.333,404.5 405,399.5C 405.663,395.965 407.163,392.965 409.5,390.5C 415.311,388.785 421.311,387.785 427.5,387.5C 427.5,386.5 427.5,385.5 427.5,384.5C 430.142,384.488 431.475,385.821 431.5,388.5 Z"/></g>
<g><path style="opacity:1" fill="#0e2d12" d="M 495.5,383.5 C 488.635,381.495 481.635,380.662 474.5,381C 469.747,384.997 466.914,390.163 466,396.5C 465.333,402.833 465.333,409.167 466,415.5C 468.079,421.747 472.246,425.747 478.5,427.5C 478.5,427.833 478.5,428.167 478.5,428.5C 476.548,429.408 474.548,429.241 472.5,428C 463.946,420.328 461.113,410.828 464,399.5C 463.788,391.991 466.288,385.658 471.5,380.5C 473.021,379.063 474.855,378.396 477,378.5C 480.5,379 484,379.5 487.5,380C 490.675,380.493 493.341,381.66 495.5,383.5 Z"/></g>
<g><path style="opacity:1" fill="#bfe589" d="M 495.5,383.5 C 499.597,385.215 502.931,387.882 505.5,391.5C 501.856,389.343 498.19,387.176 494.5,385C 488.895,383.511 483.228,382.844 477.5,383C 475.324,383.163 473.491,383.996 472,385.5C 467.939,395.044 466.606,405.044 468,415.5C 469.527,417.221 470.527,419.221 471,421.5C 473.558,423.662 476.058,425.662 478.5,427.5C 472.246,425.747 468.079,421.747 466,415.5C 465.333,409.167 465.333,402.833 466,396.5C 466.914,390.163 469.747,384.997 474.5,381C 481.635,380.662 488.635,381.495 495.5,383.5 Z"/></g>
<g><path style="opacity:1" fill="#cffa65" d="M 505.5,391.5 C 506.75,394.006 507.416,396.673 507.5,399.5C 508.812,401.743 509.478,404.41 509.5,407.5C 509.741,413.097 508.741,418.431 506.5,423.5C 497.727,428.434 488.394,429.767 478.5,427.5C 476.058,425.662 473.558,423.662 471,421.5C 470.527,419.221 469.527,417.221 468,415.5C 466.606,405.044 467.939,395.044 472,385.5C 473.491,383.996 475.324,383.163 477.5,383C 483.228,382.844 488.895,383.511 494.5,385C 498.19,387.176 501.856,389.343 505.5,391.5 Z"/></g>
<g><path style="opacity:1" fill="#bae38f" d="M 505.5,391.5 C 505.833,391.5 506.167,391.5 506.5,391.5C 513.098,402.218 513.098,412.884 506.5,423.5C 508.741,418.431 509.741,413.097 509.5,407.5C 509.478,404.41 508.812,401.743 507.5,399.5C 507.416,396.673 506.75,394.006 505.5,391.5 Z"/></g>
<g><path style="opacity:1" fill="#09290e" d="M 506.5,391.5 C 508.371,391.859 509.871,392.859 511,394.5C 512.962,403.158 512.962,411.825 511,420.5C 509.667,422.5 508.333,424.5 507,426.5C 506.31,427.738 505.81,427.738 505.5,426.5C 506.11,425.609 506.443,424.609 506.5,423.5C 513.098,412.884 513.098,402.218 506.5,391.5 Z"/></g>
<g><path style="opacity:1" fill="#e9fec4" d="M 549.5,427.5 C 549.5,426.833 549.5,426.167 549.5,425.5C 550.75,425.423 551.583,424.756 552,423.5C 552.269,418.334 553.269,413.334 555,408.5C 556.119,405.709 558.119,404.043 561,403.5C 565.551,405.805 570.051,408.305 574.5,411C 575.46,412.419 576.293,413.919 577,415.5C 577.414,415.043 577.914,414.709 578.5,414.5C 579.781,418.608 578.947,422.274 576,425.5C 575.506,427.134 575.34,428.801 575.5,430.5C 574.325,430.281 573.325,430.614 572.5,431.5C 571.099,433.869 569.432,436.036 567.5,438C 561.266,437.653 555.099,437.82 549,438.5C 548.977,435.949 549.477,433.449 550.5,431C 549.663,429.989 549.33,428.822 549.5,427.5 Z"/></g>
<g><path style="opacity:1" fill="#cdfe55" d="M 507.5,399.5 C 511.131,421.37 502.131,430.203 480.5,426C 477.048,424.215 474.214,421.715 472,418.5C 471.279,410.791 471.779,403.125 473.5,395.5C 473.379,394.106 473.046,392.772 472.5,391.5C 474.027,389.807 475.36,387.973 476.5,386C 478.333,385.833 480.167,385.667 482,385.5C 487.407,387.048 492.907,388.215 498.5,389C 499.113,391.147 499.779,393.314 500.5,395.5C 503.308,396.094 505.641,397.427 507.5,399.5 Z"/></g>
<g><path style="opacity:1" fill="#d1eacb" d="M 457.5,366.5 C 453.969,372.442 448.635,375.609 441.5,376C 438.707,379.081 436.54,382.581 435,386.5C 432.846,396.696 433.012,406.696 435.5,416.5C 435.5,417.5 435.5,418.5 435.5,419.5C 436.32,423.796 437.654,427.963 439.5,432C 438.228,438.625 440.562,443.791 446.5,447.5C 449.5,449.833 452.167,452.5 454.5,455.5C 453.833,455.5 453.167,455.5 452.5,455.5C 451.22,454.069 449.553,453.402 447.5,453.5C 446.823,449.222 444.323,446.555 440,445.5C 439.887,443.026 438.887,441.026 437,439.5C 436.667,435.5 436.333,431.5 436,427.5C 434.253,424.79 433.253,421.79 433,418.5C 432.828,412.319 432.328,406.319 431.5,400.5C 431.5,396.5 431.5,392.5 431.5,388.5C 433.404,384.219 435.404,379.886 437.5,375.5C 440.785,375.072 443.785,374.072 446.5,372.5C 448.086,371.852 449.753,371.352 451.5,371C 452.337,369.989 452.67,368.822 452.5,367.5C 454.216,367.371 455.883,367.038 457.5,366.5 Z"/></g>
<g><path style="opacity:1" fill="#dcf1d4" d="M 567.5,402.5 C 572.067,404.894 576.234,407.894 580,411.5C 580.985,413.366 581.485,415.366 581.5,417.5C 579.942,422.979 578.442,428.645 577,434.5C 574.927,436.421 572.76,438.088 570.5,439.5C 570.5,439.833 570.5,440.167 570.5,440.5C 564.484,440.407 558.484,440.074 552.5,439.5C 551.836,443.428 552.003,447.428 553,451.5C 554.988,455.295 556.488,459.295 557.5,463.5C 557.564,465.557 556.898,467.223 555.5,468.5C 555.665,465.482 555.498,462.482 555,459.5C 554.584,457.45 553.417,456.116 551.5,455.5C 551.112,451.281 550.112,447.281 548.5,443.5C 542.143,444.542 535.81,444.542 529.5,443.5C 532.675,442.724 536.008,442.557 539.5,443C 540.883,441.729 541.883,440.229 542.5,438.5C 545.382,435.197 547.715,431.531 549.5,427.5C 549.33,428.822 549.663,429.989 550.5,431C 549.477,433.449 548.977,435.949 549,438.5C 555.099,437.82 561.266,437.653 567.5,438C 569.432,436.036 571.099,433.869 572.5,431.5C 573.325,430.614 574.325,430.281 575.5,430.5C 575.34,428.801 575.506,427.134 576,425.5C 578.947,422.274 579.781,418.608 578.5,414.5C 577.914,414.709 577.414,415.043 577,415.5C 576.293,413.919 575.46,412.419 574.5,411C 570.051,408.305 565.551,405.805 561,403.5C 558.119,404.043 556.119,405.709 555,408.5C 553.269,413.334 552.269,418.334 552,423.5C 551.583,424.756 550.75,425.423 549.5,425.5C 551.151,419.631 552.151,413.631 552.5,407.5C 553.868,405.436 554.868,403.102 555.5,400.5C 556.519,399.313 557.686,398.313 559,397.5C 561.969,399.063 564.802,400.729 567.5,402.5 Z"/></g>
<g><path style="opacity:1" fill="#0f282a" d="M 571.5,396.5 C 571.185,398.226 571.019,399.893 571,401.5C 574.667,404.5 578.333,407.5 582,410.5C 584.179,419.046 583.512,427.38 580,435.5C 579.667,435.167 579.333,434.833 579,434.5C 577.326,438.089 574.493,439.755 570.5,439.5C 572.76,438.088 574.927,436.421 577,434.5C 578.442,428.645 579.942,422.979 581.5,417.5C 581.485,415.366 580.985,413.366 580,411.5C 576.234,407.894 572.067,404.894 567.5,402.5C 568.449,400.223 569.782,398.223 571.5,396.5 Z"/></g>
<g><path style="opacity:1" fill="#c4eb8b" d="M 506.5,423.5 C 506.443,424.609 506.11,425.609 505.5,426.5C 504.833,426.5 504.5,426.833 504.5,427.5C 495.945,431.005 487.278,431.338 478.5,428.5C 478.5,428.167 478.5,427.833 478.5,427.5C 488.394,429.767 497.727,428.434 506.5,423.5 Z"/></g>
<g><path style="opacity:1" fill="#0a2b10" d="M 504.5,427.5 C 504.047,428.458 503.381,429.292 502.5,430C 495.216,433.03 487.882,433.196 480.5,430.5C 479.287,430.253 478.62,429.586 478.5,428.5C 487.278,431.338 495.945,431.005 504.5,427.5 Z"/></g>
<g><path style="opacity:1" fill="#e8fdb7" d="M 445.5,459.5 C 440.385,457.405 436.052,458.405 432.5,462.5C 426.902,460.959 421.568,459.626 416.5,458.5C 414.727,455.376 413.394,452.043 412.5,448.5C 412.771,446.307 413.771,444.641 415.5,443.5C 420.92,440.577 425.92,437.077 430.5,433C 426.622,431.428 426.622,429.928 430.5,428.5C 432.002,430.252 433.002,432.252 433.5,434.5C 431.665,436.646 430.998,438.98 431.5,441.5C 433.204,443.849 435.537,444.849 438.5,444.5C 438.555,450.136 441.221,453.469 446.5,454.5C 447.985,458.137 447.485,458.804 445,456.5C 444.53,457.577 444.697,458.577 445.5,459.5 Z"/></g>
<g><path style="opacity:1" fill="#132a26" d="M 408.5,422.5 C 413.326,423.994 418.326,424.994 423.5,425.5C 423.987,426.446 424.32,427.446 424.5,428.5C 419.46,434.867 414.127,440.867 408.5,446.5C 407.872,441.962 409.372,438.295 413,435.5C 413.333,435.833 413.667,436.167 414,436.5C 415.683,434.486 417.683,432.82 420,431.5C 420.49,430.207 420.657,428.873 420.5,427.5C 417.482,427.665 414.482,427.498 411.5,427C 409.859,425.871 408.859,424.371 408.5,422.5 Z"/></g>
<g><path style="opacity:1" fill="#d8efcf" d="M 417.5,385.5 C 415.46,386.942 413.127,387.942 410.5,388.5C 409.702,388.957 409.369,389.624 409.5,390.5C 407.163,392.965 405.663,395.965 405,399.5C 404.333,404.5 404.333,409.5 405,414.5C 410.617,420.273 417.45,423.607 425.5,424.5C 426.26,429.723 424.76,434.056 421,437.5C 420.667,437.167 420.333,436.833 420,436.5C 417.418,438.228 415.918,440.561 415.5,443.5C 413.771,444.641 412.771,446.307 412.5,448.5C 413.394,452.043 414.727,455.376 416.5,458.5C 415.833,458.833 415.167,459.167 414.5,459.5C 411.735,455.545 409.735,451.212 408.5,446.5C 414.127,440.867 419.46,434.867 424.5,428.5C 424.32,427.446 423.987,426.446 423.5,425.5C 418.326,424.994 413.326,423.994 408.5,422.5C 405.759,420.025 403.759,417.025 402.5,413.5C 400.627,403.13 402.96,393.964 409.5,386C 412.146,385.503 414.813,385.336 417.5,385.5 Z"/></g>
<g><path style="opacity:1" fill="#0a242a" d="M 550.5,396.5 C 551.903,399.909 552.57,403.575 552.5,407.5C 552.151,413.631 551.151,419.631 549.5,425.5C 549.5,426.167 549.5,426.833 549.5,427.5C 547.715,431.531 545.382,435.197 542.5,438.5C 540.797,437.34 540.131,438.007 540.5,440.5C 537.167,440.5 533.833,440.5 530.5,440.5C 530.539,439.417 530.873,438.417 531.5,437.5C 530.253,435.677 529.586,433.677 529.5,431.5C 530.873,431.343 532.207,431.51 533.5,432C 534.268,434.369 535.435,436.535 537,438.5C 542.077,433.218 546.077,427.218 549,420.5C 549.198,412.422 549.698,404.422 550.5,396.5 Z"/></g>
<g><path style="opacity:1" fill="#142d2b" d="M 435.5,419.5 C 437.097,420.09 438.431,421.09 439.5,422.5C 440.515,427.801 441.348,433.134 442,438.5C 443.833,441 445.667,443.5 447.5,446C 446.944,446.383 446.611,446.883 446.5,447.5C 440.562,443.791 438.228,438.625 439.5,432C 437.654,427.963 436.32,423.796 435.5,419.5 Z"/></g>
<g><path style="opacity:1" fill="#0d2325" d="M 570.5,440.5 C 569.737,441.268 568.737,441.768 567.5,442C 563.179,442.499 558.846,442.666 554.5,442.5C 554.335,445.518 554.502,448.518 555,451.5C 555.415,453.291 556.415,454.624 558,455.5C 558.296,458.706 558.796,461.872 559.5,465C 559.005,467.991 557.339,469.824 554.5,470.5C 554.833,469.833 555.167,469.167 555.5,468.5C 556.898,467.223 557.564,465.557 557.5,463.5C 556.488,459.295 554.988,455.295 553,451.5C 552.003,447.428 551.836,443.428 552.5,439.5C 558.484,440.074 564.484,440.407 570.5,440.5 Z"/></g>
<g><path style="opacity:1" fill="#e4fea9" d="M 542.5,446.5 C 540.262,452.144 537.596,457.644 534.5,463C 529.813,463.731 525.646,465.564 522,468.5C 520.405,467.644 519.572,466.311 519.5,464.5C 523.125,460.753 524.291,456.42 523,451.5C 526.508,445.731 531.175,444.397 537,447.5C 538.811,447.292 540.644,446.959 542.5,446.5 Z"/></g>
<g><path style="opacity:1" fill="#142c26" d="M 542.5,438.5 C 541.883,440.229 540.883,441.729 539.5,443C 536.008,442.557 532.675,442.724 529.5,443.5C 525.828,443.658 522.995,445.325 521,448.5C 519.561,452.949 519.061,457.282 519.5,461.5C 518.054,460.387 516.387,460.22 514.5,461C 498.661,467.944 482.661,468.277 466.5,462C 462.931,460.058 459.598,457.892 456.5,455.5C 461.244,458.112 466.244,460.279 471.5,462C 475.5,462.667 479.5,463.333 483.5,464C 495.414,466.026 506.247,463.526 516,456.5C 517.545,450.828 519.212,445.494 521,440.5C 523.923,439.434 527.09,439.434 530.5,440.5C 533.833,440.5 537.167,440.5 540.5,440.5C 540.131,438.007 540.797,437.34 542.5,438.5 Z"/></g>
<g><path style="opacity:1" fill="#e6fdb4" d="M 551.5,455.5 C 553.417,456.116 554.584,457.45 555,459.5C 555.498,462.482 555.665,465.482 555.5,468.5C 550.59,471.636 546.09,475.303 542,479.5C 533.124,484.652 526.291,482.652 521.5,473.5C 522.66,471.797 521.993,471.131 519.5,471.5C 518.897,468.959 518.897,466.626 519.5,464.5C 519.572,466.311 520.405,467.644 522,468.5C 525.646,465.564 529.813,463.731 534.5,463C 537.596,457.644 540.262,452.144 542.5,446.5C 545.102,445.031 547.269,445.698 549,448.5C 548.97,451.361 549.803,453.695 551.5,455.5 Z"/></g>
<g><path style="opacity:1" fill="#e9fcc3" d="M 431.5,400.5 C 432.328,406.319 432.828,412.319 433,418.5C 433.253,421.79 434.253,424.79 436,427.5C 436.333,431.5 436.667,435.5 437,439.5C 438.887,441.026 439.887,443.026 440,445.5C 444.323,446.555 446.823,449.222 447.5,453.5C 449.553,453.402 451.22,454.069 452.5,455.5C 453.819,458.436 455.486,460.436 457.5,461.5C 457.291,462.086 456.957,462.586 456.5,463C 453.854,463.497 451.187,463.664 448.5,463.5C 448.912,461.027 447.912,459.694 445.5,459.5C 444.697,458.577 444.53,457.577 445,456.5C 447.485,458.804 447.985,458.137 446.5,454.5C 441.221,453.469 438.555,450.136 438.5,444.5C 435.537,444.849 433.204,443.849 431.5,441.5C 430.998,438.98 431.665,436.646 433.5,434.5C 433.002,432.252 432.002,430.252 430.5,428.5C 426.622,429.928 426.622,431.428 430.5,433C 425.92,437.077 420.92,440.577 415.5,443.5C 415.918,440.561 417.418,438.228 420,436.5C 420.333,436.833 420.667,437.167 421,437.5C 424.76,434.056 426.26,429.723 425.5,424.5C 426.549,424.402 427.715,424.402 429,424.5C 429.667,423.833 430.333,423.167 431,422.5C 431.5,415.174 431.666,407.841 431.5,400.5 Z"/></g>
<g><path style="opacity:1" fill="#e7f5f5" d="M 714.5,426.5 C 714.869,428.441 715.536,430.275 716.5,432C 713.18,436.963 709.846,441.963 706.5,447C 701.462,447.506 698.462,450.339 697.5,455.5C 695.954,456.684 694.287,457.684 692.5,458.5C 689.41,461.913 686.744,465.58 684.5,469.5C 677.664,474.115 670.33,477.782 662.5,480.5C 674.103,470.738 685.603,460.738 697,450.5C 703.588,442.964 709.422,434.964 714.5,426.5 Z"/></g>
<g><path style="opacity:1" fill="#112928" d="M 416.5,458.5 C 419.053,459.887 421.386,461.72 423.5,464C 424.873,464.875 426.373,465.375 428,465.5C 433.569,464.421 438.902,462.754 444,460.5C 444.765,460.57 445.265,460.903 445.5,461.5C 446.341,463.379 446.675,465.379 446.5,467.5C 444.135,466.406 441.635,465.739 439,465.5C 434.758,467.239 430.592,468.239 426.5,468.5C 422.458,465.444 418.458,462.444 414.5,459.5C 415.167,459.167 415.833,458.833 416.5,458.5 Z"/></g>
<g><path style="opacity:1" fill="#e6f8d3" d="M 452.5,455.5 C 453.167,455.5 453.833,455.5 454.5,455.5C 455.167,455.5 455.833,455.5 456.5,455.5C 459.598,457.892 462.931,460.058 466.5,462C 482.661,468.277 498.661,467.944 514.5,461C 516.387,460.22 518.054,460.387 519.5,461.5C 517.974,462.105 516.974,463.271 516.5,465C 512.061,466.355 507.727,467.855 503.5,469.5C 502.033,469.106 500.533,468.773 499,468.5C 490.611,469.107 482.278,469.774 474,470.5C 473.626,471.416 473.126,472.25 472.5,473C 474.5,474.667 476.5,476.333 478.5,478C 477.469,482.525 478.135,486.858 480.5,491C 481.793,491.49 483.127,491.657 484.5,491.5C 485.449,492.152 486.615,492.486 488,492.5C 493.123,491.084 498.29,489.917 503.5,489C 505.57,488.052 507.07,486.552 508,484.5C 508.105,480.63 508.938,476.963 510.5,473.5C 512.432,472.634 514.432,471.967 516.5,471.5C 517.713,471.747 518.38,472.414 518.5,473.5C 516.741,472.739 515.074,473.072 513.5,474.5C 512.883,474.611 512.383,474.944 512,475.5C 512.26,482.037 510.76,488.037 507.5,493.5C 505.472,489.769 504.472,490.435 504.5,495.5C 496.082,495.802 487.748,495.469 479.5,494.5C 477.142,489.86 475.975,484.86 476,479.5C 474.774,477.452 473.274,477.119 471.5,478.5C 470.916,476.743 469.749,475.41 468,474.5C 466.85,475.424 465.85,475.424 465,474.5C 463.991,472.975 463.491,471.308 463.5,469.5C 457.928,468.369 452.595,466.702 447.5,464.5C 447.715,462.821 447.048,461.821 445.5,461.5C 445.265,460.903 444.765,460.57 444,460.5C 438.902,462.754 433.569,464.421 428,465.5C 426.373,465.375 424.873,464.875 423.5,464C 421.386,461.72 419.053,459.887 416.5,458.5C 421.568,459.626 426.902,460.959 432.5,462.5C 436.052,458.405 440.385,457.405 445.5,459.5C 447.912,459.694 448.912,461.027 448.5,463.5C 451.187,463.664 453.854,463.497 456.5,463C 456.957,462.586 457.291,462.086 457.5,461.5C 455.486,460.436 453.819,458.436 452.5,455.5 Z"/></g>
<g><path style="opacity:1" fill="#e6fcbf" d="M 529.5,443.5 C 535.81,444.542 542.143,444.542 548.5,443.5C 550.112,447.281 551.112,451.281 551.5,455.5C 549.803,453.695 548.97,451.361 549,448.5C 547.269,445.698 545.102,445.031 542.5,446.5C 540.644,446.959 538.811,447.292 537,447.5C 531.175,444.397 526.508,445.731 523,451.5C 524.291,456.42 523.125,460.753 519.5,464.5C 518.897,466.626 518.897,468.959 519.5,471.5C 521.993,471.131 522.66,471.797 521.5,473.5C 520.5,473.5 519.5,473.5 518.5,473.5C 518.38,472.414 517.713,471.747 516.5,471.5C 514.432,471.967 512.432,472.634 510.5,473.5C 508.938,476.963 508.105,480.63 508,484.5C 507.07,486.552 505.57,488.052 503.5,489C 498.29,489.917 493.123,491.084 488,492.5C 486.615,492.486 485.449,492.152 484.5,491.5C 489.223,490.312 493.889,488.812 498.5,487C 500.084,484.175 499.418,482.008 496.5,480.5C 498.396,479.534 500.396,479.201 502.5,479.5C 502.343,480.873 502.51,482.207 503,483.5C 504.013,482.504 504.846,481.504 505.5,480.5C 505.281,479.062 504.781,477.729 504,476.5C 503.346,477.696 502.846,477.696 502.5,476.5C 504.369,474.278 504.702,471.945 503.5,469.5C 507.727,467.855 512.061,466.355 516.5,465C 516.974,463.271 517.974,462.105 519.5,461.5C 519.061,457.282 519.561,452.949 521,448.5C 522.995,445.325 525.828,443.658 529.5,443.5 Z"/></g>
<g><path style="opacity:1" fill="#eef5f7" d="M 446.5,467.5 C 448.972,468.962 451.639,470.128 454.5,471C 458.394,473.392 461.394,476.559 463.5,480.5C 464.325,481.386 465.325,481.719 466.5,481.5C 466.217,482.289 465.717,482.956 465,483.5C 461.901,482.035 458.734,480.701 455.5,479.5C 453.912,480.01 452.745,481.01 452,482.5C 450.488,481.743 449.154,480.743 448,479.5C 446.985,475.56 446.485,471.56 446.5,467.5 Z"/></g>
<g><path style="opacity:1" fill="#e7feb6" d="M 503.5,469.5 C 504.702,471.945 504.369,474.278 502.5,476.5C 502.846,477.696 503.346,477.696 504,476.5C 504.781,477.729 505.281,479.062 505.5,480.5C 504.846,481.504 504.013,482.504 503,483.5C 502.51,482.207 502.343,480.873 502.5,479.5C 500.396,479.201 498.396,479.534 496.5,480.5C 499.418,482.008 500.084,484.175 498.5,487C 493.889,488.812 489.223,490.312 484.5,491.5C 483.127,491.657 481.793,491.49 480.5,491C 478.135,486.858 477.469,482.525 478.5,478C 476.5,476.333 474.5,474.667 472.5,473C 473.126,472.25 473.626,471.416 474,470.5C 482.278,469.774 490.611,469.107 499,468.5C 500.533,468.773 502.033,469.106 503.5,469.5 Z"/></g>
<g><path style="opacity:1" fill="#f3fced" d="M 445.5,461.5 C 447.048,461.821 447.715,462.821 447.5,464.5C 452.595,466.702 457.928,468.369 463.5,469.5C 463.491,471.308 463.991,472.975 465,474.5C 465.85,475.424 466.85,475.424 468,474.5C 469.749,475.41 470.916,476.743 471.5,478.5C 470.5,478.833 469.833,479.5 469.5,480.5C 468.609,481.11 467.609,481.443 466.5,481.5C 465.325,481.719 464.325,481.386 463.5,480.5C 461.394,476.559 458.394,473.392 454.5,471C 451.639,470.128 448.972,468.962 446.5,467.5C 446.675,465.379 446.341,463.379 445.5,461.5 Z"/></g>
<g><path style="opacity:1" fill="#d9f1ce" d="M 555.5,468.5 C 555.167,469.167 554.833,469.833 554.5,470.5C 554.5,470.833 554.5,471.167 554.5,471.5C 552.485,473.676 550.818,476.176 549.5,479C 543.493,481.087 537.659,483.587 532,486.5C 526.349,483.349 521.849,479.016 518.5,473.5C 519.5,473.5 520.5,473.5 521.5,473.5C 526.291,482.652 533.124,484.652 542,479.5C 546.09,475.303 550.59,471.636 555.5,468.5 Z"/></g>
<g><path style="opacity:1" fill="#1a2f20" d="M 479.5,494.5 C 477.733,495.65 476.567,494.983 476,492.5C 475.081,488.13 474.081,483.797 473,479.5C 471.989,480.337 470.822,480.67 469.5,480.5C 469.833,479.5 470.5,478.833 471.5,478.5C 473.274,477.119 474.774,477.452 476,479.5C 475.975,484.86 477.142,489.86 479.5,494.5 Z"/></g>
<g><path style="opacity:1" fill="#0c2524" d="M 554.5,471.5 C 553.626,476.408 551.293,480.574 547.5,484C 542.167,484.116 537.167,485.283 532.5,487.5C 529,487.085 525.667,486.085 522.5,484.5C 520.835,479.748 517.835,476.415 513.5,474.5C 515.074,473.072 516.741,472.739 518.5,473.5C 521.849,479.016 526.349,483.349 532,486.5C 537.659,483.587 543.493,481.087 549.5,479C 550.818,476.176 552.485,473.676 554.5,471.5 Z"/></g>
<g><path style="opacity:1" fill="#6e8779" d="M 507.5,493.5 C 507.027,494.906 506.027,495.573 504.5,495.5C 504.472,490.435 505.472,489.769 507.5,493.5 Z"/></g>
<g><path style="opacity:1" fill="#e6f3f3" d="M 662.5,480.5 C 662.141,482.371 661.141,483.871 659.5,485C 661,486.833 662.5,488.667 664,490.5C 666.139,489.231 668.305,489.231 670.5,490.5C 671.246,491.736 671.579,493.07 671.5,494.5C 676.227,494.131 680.394,495.465 684,498.5C 684.414,498.043 684.914,497.709 685.5,497.5C 686.369,500.821 688.869,502.821 693,503.5C 695.26,503.673 697.593,503.673 700,503.5C 700.991,504.939 702.324,505.939 704,506.5C 704.309,507.766 704.809,508.933 705.5,510C 710.445,510.897 715.111,512.397 719.5,514.5C 719.286,516.144 719.62,517.644 720.5,519C 723.353,520.534 726.186,522.034 729,523.5C 729.295,525.931 730.462,527.764 732.5,529C 731.663,530.011 731.33,531.178 731.5,532.5C 724.618,526.12 717.284,520.286 709.5,515C 691.246,505.744 672.912,496.577 654.5,487.5C 653.167,486.833 653.167,486.167 654.5,485.5C 657.202,483.78 659.868,482.113 662.5,480.5 Z"/></g>
<g><path style="opacity:1" fill="#0b2237" d="M 316.5,499.5 C 319.103,511.735 314.103,517.235 301.5,516C 297.923,513.926 295.256,511.093 293.5,507.5C 294.079,494.866 300.413,490.699 312.5,495C 314.041,496.371 315.375,497.871 316.5,499.5 Z"/></g>
<g><path style="opacity:1" fill="#dcf2f2" d="M 304.5,501.5 C 308.473,502.075 309.473,504.242 307.5,508C 306.216,508.684 305.049,508.517 304,507.5C 303.322,505.402 303.489,503.402 304.5,501.5 Z"/></g>
<g><path style="opacity:1" fill="#f3fbf4" d="M 569.5,575.5 C 569.5,575.833 569.5,576.167 569.5,576.5C 564.663,581.837 559.663,587.003 554.5,592C 554.645,592.772 554.978,593.439 555.5,594C 563.802,597.148 571.468,601.315 578.5,606.5C 584.678,611.003 589.345,616.67 592.5,623.5C 592.5,624.167 592.5,624.833 592.5,625.5C 591.853,626.274 591.52,627.274 591.5,628.5C 592.045,632.694 592.711,636.86 593.5,641C 592.378,645.808 591.378,650.642 590.5,655.5C 588.831,656.89 587.164,657.223 585.5,656.5C 583.549,659.786 581.215,662.786 578.5,665.5C 577.417,667.792 577.417,670.125 578.5,672.5C 576.839,674.488 575.672,676.821 575,679.5C 574.072,681.335 572.906,681.668 571.5,680.5C 568.374,682.129 565.707,684.295 563.5,687C 561.866,687.494 560.199,687.66 558.5,687.5C 558.5,688.5 558.5,689.5 558.5,690.5C 555.319,690.742 552.319,690.742 549.5,690.5C 548.646,691.522 547.646,692.355 546.5,693C 531.337,696.306 516.003,697.306 500.5,696C 492.195,694.924 483.861,694.091 475.5,693.5C 462.001,694.823 448.501,694.823 435,693.5C 426.88,694.438 418.88,695.771 411,697.5C 406.047,696.764 400.881,696.431 395.5,696.5C 394.206,695.71 393.039,694.71 392,693.5C 389.105,686.172 390.272,679.672 395.5,674C 397.345,672.872 399.345,672.372 401.5,672.5C 406.459,672.935 411.126,672.101 415.5,670C 415.167,669.667 414.833,669.333 414.5,669C 417.167,666.333 419.833,663.667 422.5,661C 420.942,652.115 419.942,643.115 419.5,634C 420.438,605.533 420.772,577.033 420.5,548.5C 418.946,545.223 417.279,542.056 415.5,539C 413.337,538.755 411.67,537.755 410.5,536C 401.239,536.72 395.239,532.72 392.5,524C 394.86,519.776 396.526,515.276 397.5,510.5C 402.504,508.995 407.67,508.329 413,508.5C 425.652,509.443 438.319,510.11 451,510.5C 472.682,509.753 494.349,508.753 516,507.5C 538.33,505.268 556.664,512.601 571,529.5C 578.672,545.074 578.172,560.408 569.5,575.5 Z"/></g>
<g><path style="opacity:1" fill="#022235" d="M 504.5,532.5 C 505.055,534.729 506.389,536.395 508.5,537.5C 508.291,538.086 507.957,538.586 507.5,539C 509.107,540.049 509.773,541.549 509.5,543.5C 511.167,543.5 512.833,543.5 514.5,543.5C 514.969,552.9 515.302,562.233 515.5,571.5C 515.172,575.5 513.339,578.5 510,580.5C 510.077,579.262 509.911,578.262 509.5,577.5C 506.855,581.49 503.188,583.99 498.5,585C 491.144,585.831 483.811,585.665 476.5,584.5C 475.902,583.205 475.402,581.872 475,580.5C 474.617,581.056 474.117,581.389 473.5,581.5C 472.387,567.866 472.22,554.199 473,540.5C 474.193,535.306 477.36,532.14 482.5,531C 490.007,529.99 497.34,530.49 504.5,532.5 Z"/></g>
<g><path style="opacity:1" fill="#bee58c" d="M 371.5,554.5 C 377.384,564.459 378.884,575.126 376,586.5C 374.296,588.373 372.463,590.04 370.5,591.5C 370.167,591.5 369.833,591.5 369.5,591.5C 358.677,595.006 350.344,592.006 344.5,582.5C 344.5,582.167 344.5,581.833 344.5,581.5C 339.035,562.791 345.869,551.458 365,547.5C 368.677,548.346 370.844,550.68 371.5,554.5 Z"/></g>
<g><path style="opacity:1" fill="#0e2d15" d="M 377.5,589.5 C 375.16,590.086 372.993,591.086 371,592.5C 370.601,592.272 370.435,591.938 370.5,591.5C 372.463,590.04 374.296,588.373 376,586.5C 378.884,575.126 377.384,564.459 371.5,554.5C 370.844,550.68 368.677,548.346 365,547.5C 345.869,551.458 339.035,562.791 344.5,581.5C 343.503,581.53 342.836,581.03 342.5,580C 338.859,568.312 341.525,558.312 350.5,550C 357.15,546.769 364.15,545.769 371.5,547C 374.377,554.298 376.877,561.798 379,569.5C 379.871,576.315 379.371,582.982 377.5,589.5 Z"/></g>
<g><path style="opacity:1" fill="#102b23" d="M 612.5,558.5 C 609.609,557.597 606.609,557.264 603.5,557.5C 603.193,560.899 602.193,564.066 600.5,567C 597.788,567.826 595.455,567.326 593.5,565.5C 595.167,565.5 596.833,565.5 598.5,565.5C 599.95,561.035 602.284,557.035 605.5,553.5C 607.385,554.609 609.385,555.443 611.5,556C 612.252,556.671 612.586,557.504 612.5,558.5 Z"/></g>
<g><path style="opacity:1" fill="#e8f6f4" d="M 316.5,499.5 C 317.5,499.5 318.5,499.5 319.5,499.5C 320.358,503.127 320.524,506.794 320,510.5C 321.073,512.547 322.239,514.547 323.5,516.5C 325.373,515.911 327.04,516.578 328.5,518.5C 329.281,517.271 329.781,515.938 330,514.5C 330.654,515.696 331.154,515.696 331.5,514.5C 330.477,512.105 331.477,511.105 334.5,511.5C 335.909,513.305 336.409,515.305 336,517.5C 332.434,520.799 328.267,522.299 323.5,522C 320.021,518.918 316.021,517.585 311.5,518C 306.954,522.877 302.787,528.044 299,533.5C 298.333,534.5 298.333,535.5 299,536.5C 301.107,540.381 302.941,544.381 304.5,548.5C 309.285,549.617 312.952,552.284 315.5,556.5C 312.474,564.62 311.641,572.953 313,581.5C 310.828,584.348 308.162,586.682 305,588.5C 304.505,591.531 304.671,594.531 305.5,597.5C 304.213,596.129 303.547,594.295 303.5,592C 305.435,587.812 306.768,583.312 307.5,578.5C 306.113,578.193 304.446,578.193 302.5,578.5C 302.33,577.178 302.663,576.011 303.5,575C 305.107,575.019 306.774,575.185 308.5,575.5C 308.391,568.291 308.724,561.291 309.5,554.5C 307.716,551.348 305.216,550.348 302,551.5C 301.77,547.787 300.603,547.12 298.5,549.5C 297.914,549.291 297.414,548.957 297,548.5C 296.749,546.567 296.249,544.734 295.5,543C 296.258,541.636 295.758,540.469 294,539.5C 291.793,533.087 293.959,529.087 300.5,527.5C 301.976,524.857 303.976,522.69 306.5,521C 305.663,519.989 305.33,518.822 305.5,517.5C 303.856,517.286 302.356,517.62 301,518.5C 299.846,516.043 298.512,516.043 297,518.5C 295.325,515.389 294.158,511.722 293.5,507.5C 295.256,511.093 297.923,513.926 301.5,516C 314.103,517.235 319.103,511.735 316.5,499.5 Z"/></g>
<g><path style="opacity:1" fill="#cefa6c" d="M 371.5,554.5 C 373.233,562.565 374.9,570.732 376.5,579C 376.471,585.034 373.471,588.701 367.5,590C 364.167,590.667 360.833,590.667 357.5,590C 356.619,589.292 355.953,588.458 355.5,587.5C 353.801,587.66 352.134,587.494 350.5,587C 340.63,575.259 341.297,564.259 352.5,554C 359.065,549.209 365.398,549.376 371.5,554.5 Z"/></g>
<g><path style="opacity:1" fill="#daf2c1" d="M 612.5,558.5 C 612.5,559.5 612.5,560.5 612.5,561.5C 613.191,563.022 614.358,564.022 616,564.5C 618.296,563.372 620.129,561.705 621.5,559.5C 624.321,558.2 626.988,558.533 629.5,560.5C 630.204,563.704 630.87,566.871 631.5,570C 634.063,570.154 636.563,569.654 639,568.5C 639.902,568.743 640.735,569.077 641.5,569.5C 642.908,570.911 643.908,572.577 644.5,574.5C 642.877,577.409 641.543,580.409 640.5,583.5C 639.681,580.695 639.181,577.695 639,574.5C 635.721,572.809 632.221,571.809 628.5,571.5C 628.896,568.956 628.229,566.789 626.5,565C 622.865,565.055 619.365,565.889 616,567.5C 613.144,565.32 610.144,563.32 607,561.5C 606.127,561.735 605.293,562.069 604.5,562.5C 603.032,564.792 602.032,566.959 601.5,569C 597.789,569.175 594.122,569.675 590.5,570.5C 589.691,572.071 589.357,573.738 589.5,575.5C 588.833,574.833 588.167,574.167 587.5,573.5C 585.956,568.36 587.956,565.694 593.5,565.5C 595.455,567.326 597.788,567.826 600.5,567C 602.193,564.066 603.193,560.899 603.5,557.5C 606.609,557.264 609.609,557.597 612.5,558.5 Z"/></g>
<g><path style="opacity:1" fill="#0e2732" d="M 504.5,532.5 C 516.911,539.514 521.745,550.181 519,564.5C 518.29,577.205 511.79,585.038 499.5,588C 492.167,588.667 484.833,588.667 477.5,588C 475.266,586.362 473.933,584.195 473.5,581.5C 474.117,581.389 474.617,581.056 475,580.5C 475.402,581.872 475.902,583.205 476.5,584.5C 483.811,585.665 491.144,585.831 498.5,585C 503.188,583.99 506.855,581.49 509.5,577.5C 509.911,578.262 510.077,579.262 510,580.5C 513.339,578.5 515.172,575.5 515.5,571.5C 515.302,562.233 514.969,552.9 514.5,543.5C 512.833,543.5 511.167,543.5 509.5,543.5C 509.773,541.549 509.107,540.049 507.5,539C 507.957,538.586 508.291,538.086 508.5,537.5C 506.389,536.395 505.055,534.729 504.5,532.5 Z"/></g>
<g><path style="opacity:1" fill="#cefe5c" d="M 355.5,587.5 C 353.924,586.717 352.591,585.55 351.5,584C 350.552,583.517 349.552,583.351 348.5,583.5C 346.865,578.28 346.365,572.947 347,567.5C 348.64,565.421 349.806,563.088 350.5,560.5C 352.396,559.534 354.396,559.201 356.5,559.5C 356.703,557.61 356.037,556.11 354.5,555C 355.167,554.333 355.833,553.667 356.5,553C 359.817,552.502 363.15,552.335 366.5,552.5C 366.477,554.6 367.144,556.433 368.5,558C 366.533,561.166 366.366,564.333 368,567.5C 369.216,565.038 369.882,562.371 370,559.5C 370.145,563.037 370.978,566.371 372.5,569.5C 373.663,574.802 373.829,580.136 373,585.5C 369.051,586.835 365.051,588.168 361,589.5C 359.061,589.046 357.228,588.379 355.5,587.5 Z"/></g>
<g><path style="opacity:1" fill="#112a23" d="M 641.5,569.5 C 640.735,569.077 639.902,568.743 639,568.5C 636.563,569.654 634.063,570.154 631.5,570C 630.87,566.871 630.204,563.704 629.5,560.5C 626.988,558.533 624.321,558.2 621.5,559.5C 620.129,561.705 618.296,563.372 616,564.5C 614.358,564.022 613.191,563.022 612.5,561.5C 614.5,561.5 616.5,561.5 618.5,561.5C 618.5,560.5 618.5,559.5 618.5,558.5C 621.553,558.089 624.553,557.423 627.5,556.5C 630.762,559.512 633.428,563.012 635.5,567C 638.051,567.002 640.051,567.836 641.5,569.5 Z"/></g>
<g><path style="opacity:1" fill="#e8f7f7" d="M 397.5,510.5 C 396.526,515.276 394.86,519.776 392.5,524C 395.239,532.72 401.239,536.72 410.5,536C 411.67,537.755 413.337,538.755 415.5,539C 417.279,542.056 418.946,545.223 420.5,548.5C 420.772,577.033 420.438,605.533 419.5,634C 419.942,643.115 420.942,652.115 422.5,661C 419.833,663.667 417.167,666.333 414.5,669C 414.833,669.333 415.167,669.667 415.5,670C 411.126,672.101 406.459,672.935 401.5,672.5C 405.576,671.167 409.41,669.167 413,666.5C 414.618,662.932 415.951,659.265 417,655.5C 417.667,619.5 417.667,583.5 417,547.5C 416.412,544.026 414.578,541.526 411.5,540C 407.04,538.032 402.373,536.698 397.5,536C 395.376,534.878 393.543,533.378 392,531.5C 389.79,525.353 390.124,519.353 393,513.5C 394.271,512.117 395.771,511.117 397.5,510.5 Z"/></g>
<g><path style="opacity:1" fill="#e0fca5" d="M 640.5,583.5 C 640.5,583.833 640.5,584.167 640.5,584.5C 640.414,585.496 640.748,586.329 641.5,587C 643.847,587.712 645.847,588.879 647.5,590.5C 647.185,592.483 646.185,593.816 644.5,594.5C 643.192,590.451 640.359,588.451 636,588.5C 634.5,586.167 633,583.833 631.5,581.5C 632.307,579.039 631.807,576.706 630,574.5C 628.989,573.663 627.822,573.33 626.5,573.5C 626.844,577.134 625.177,578.8 621.5,578.5C 619.714,578.304 618.381,577.471 617.5,576C 619.5,575.333 621.5,574.667 623.5,574C 623.484,571.394 622.984,568.894 622,566.5C 620.98,567.891 620.147,569.391 619.5,571C 616.736,571.532 614.07,572.366 611.5,573.5C 610.417,574.365 610.251,575.365 611,576.5C 614.676,577.679 617.176,580.013 618.5,583.5C 606.927,580.238 602.094,584.571 604,596.5C 604.417,597.756 605.25,598.423 606.5,598.5C 606.511,600.017 607.177,601.184 608.5,602C 611.817,602.498 615.15,602.665 618.5,602.5C 617.129,604.141 615.296,605.141 613,605.5C 610.667,604.833 608.333,604.167 606,603.5C 604.503,604.477 603.003,605.477 601.5,606.5C 600.833,606.333 600.167,606.167 599.5,606C 601.575,604.925 602.908,603.259 603.5,601C 602.734,597.105 601.734,593.271 600.5,589.5C 601.184,586.321 602.851,583.821 605.5,582C 603.031,577.594 600.531,577.76 598,582.5C 597.517,583.448 597.351,584.448 597.5,585.5C 593.962,585.785 592.129,584.118 592,580.5C 589.488,582.264 586.988,583.931 584.5,585.5C 585.035,587.661 585.868,589.661 587,591.5C 587.326,595.53 587.326,599.53 587,603.5C 588.356,604.38 589.856,604.714 591.5,604.5C 591.882,607.899 593.549,610.566 596.5,612.5C 595.691,614.071 595.357,615.738 595.5,617.5C 598.425,616.361 601.425,615.861 604.5,616C 606.766,617.514 607.932,619.681 608,622.5C 608.725,623.059 609.558,623.392 610.5,623.5C 614,621.167 617.5,618.833 621,616.5C 623.533,617.872 626.2,618.872 629,619.5C 630.043,617.167 630.876,614.834 631.5,612.5C 631.5,615.833 631.5,619.167 631.5,622.5C 628.833,622.5 626.167,622.5 623.5,622.5C 622.005,620.655 620.338,620.322 618.5,621.5C 615.961,622.687 613.461,624.021 611,625.5C 608.808,625.137 606.974,624.137 605.5,622.5C 605.573,620.973 604.906,619.973 603.5,619.5C 603.265,618.903 602.765,618.57 602,618.5C 596.091,621.795 592.591,620.128 591.5,613.5C 591.804,612.85 592.137,612.183 592.5,611.5C 591.37,610.378 590.703,609.044 590.5,607.5C 588.782,606.776 586.948,606.109 585,605.5C 584.398,602.779 584.565,600.113 585.5,597.5C 585.85,594.547 584.85,592.213 582.5,590.5C 578.928,585.218 580.261,581.885 586.5,580.5C 589.084,579.952 590.084,578.285 589.5,575.5C 589.357,573.738 589.691,572.071 590.5,570.5C 594.122,569.675 597.789,569.175 601.5,569C 602.032,566.959 603.032,564.792 604.5,562.5C 605.293,562.069 606.127,561.735 607,561.5C 610.144,563.32 613.144,565.32 616,567.5C 619.365,565.889 622.865,565.055 626.5,565C 628.229,566.789 628.896,568.956 628.5,571.5C 632.221,571.809 635.721,572.809 639,574.5C 639.181,577.695 639.681,580.695 640.5,583.5 Z"/></g>
<g><path style="opacity:1" fill="#0a2219" d="M 641.5,569.5 C 643.315,570.63 645.315,571.296 647.5,571.5C 647.66,573.199 647.494,574.866 647,576.5C 643.822,578.866 642.988,581.866 644.5,585.5C 643.167,585.167 641.833,584.833 640.5,584.5C 640.5,584.167 640.5,583.833 640.5,583.5C 641.543,580.409 642.877,577.409 644.5,574.5C 643.908,572.577 642.908,570.911 641.5,569.5 Z"/></g>
<g><path style="opacity:1" fill="#cae6b8" d="M 586.5,580.5 C 580.261,581.885 578.928,585.218 582.5,590.5C 578.854,589.538 577.687,587.205 579,583.5C 580.993,580.566 583.493,579.566 586.5,580.5 Z"/></g>
<g><path style="opacity:1" fill="#11291c" d="M 587.5,573.5 C 588.167,574.167 588.833,574.833 589.5,575.5C 590.084,578.285 589.084,579.952 586.5,580.5C 583.493,579.566 580.993,580.566 579,583.5C 577.687,587.205 578.854,589.538 582.5,590.5C 584.85,592.213 585.85,594.547 585.5,597.5C 584.167,598.5 582.833,599.5 581.5,600.5C 581.723,598.658 582.057,596.825 582.5,595C 581.301,592.735 579.634,590.902 577.5,589.5C 576.007,588.688 575.34,587.355 575.5,585.5C 575.467,582.898 576.467,580.898 578.5,579.5C 581.137,578.836 583.803,578.169 586.5,577.5C 587.429,576.311 587.762,574.978 587.5,573.5 Z"/></g>
<g><path style="opacity:1" fill="#021e37" d="M 578.5,579.5 C 576.467,580.898 575.467,582.898 575.5,585.5C 575.34,587.355 576.007,588.688 577.5,589.5C 577.461,591.359 578.294,592.692 580,593.5C 580.494,595.134 580.66,596.801 580.5,598.5C 578.833,598.5 577.167,598.5 575.5,598.5C 575.784,596.123 575.784,593.956 575.5,592C 574.667,591.833 573.833,591.667 573,591.5C 570.945,593.199 568.612,594.533 566,595.5C 563.371,594.791 560.871,593.791 558.5,592.5C 559.263,591.281 560.263,590.281 561.5,589.5C 560.359,588.575 560.359,587.741 561.5,587C 562.899,586.405 564.232,586.572 565.5,587.5C 566.833,586.167 568.167,584.833 569.5,583.5C 570.193,580.875 570.193,578.541 569.5,576.5C 569.5,576.167 569.5,575.833 569.5,575.5C 570.94,574.637 572.274,574.637 573.5,575.5C 576.475,567.94 577.642,567.94 577,575.5C 574.931,577.704 575.431,579.037 578.5,579.5 Z"/></g>
<g><path style="opacity:1" fill="#0d2d10" d="M 344.5,582.5 C 350.344,592.006 358.677,595.006 369.5,591.5C 369.423,592.75 368.756,593.583 367.5,594C 362.115,594.733 356.782,594.567 351.5,593.5C 349.877,591.049 347.711,589.049 345,587.5C 344.598,586.128 344.098,584.795 343.5,583.5C 343.624,582.893 343.957,582.56 344.5,582.5 Z"/></g>
<g><path style="opacity:1" fill="#ddfe94" d="M 644.5,594.5 C 639.145,597.11 638.145,600.944 641.5,606C 638.27,608.441 634.937,610.607 631.5,612.5C 630.876,614.834 630.043,617.167 629,619.5C 626.2,618.872 623.533,617.872 621,616.5C 617.5,618.833 614,621.167 610.5,623.5C 609.558,623.392 608.725,623.059 608,622.5C 607.932,619.681 606.766,617.514 604.5,616C 601.425,615.861 598.425,616.361 595.5,617.5C 595.357,615.738 595.691,614.071 596.5,612.5C 593.549,610.566 591.882,607.899 591.5,604.5C 589.856,604.714 588.356,604.38 587,603.5C 587.326,599.53 587.326,595.53 587,591.5C 585.868,589.661 585.035,587.661 584.5,585.5C 586.988,583.931 589.488,582.264 592,580.5C 592.129,584.118 593.962,585.785 597.5,585.5C 597.351,584.448 597.517,583.448 598,582.5C 600.531,577.76 603.031,577.594 605.5,582C 602.851,583.821 601.184,586.321 600.5,589.5C 601.734,593.271 602.734,597.105 603.5,601C 602.908,603.259 601.575,604.925 599.5,606C 600.167,606.167 600.833,606.333 601.5,606.5C 603.003,605.477 604.503,604.477 606,603.5C 608.333,604.167 610.667,604.833 613,605.5C 615.296,605.141 617.129,604.141 618.5,602.5C 621.51,599.477 623.176,595.81 623.5,591.5C 623.167,590.167 622.833,588.833 622.5,587.5C 621.591,585.625 620.257,584.292 618.5,583.5C 617.176,580.013 614.676,577.679 611,576.5C 610.251,575.365 610.417,574.365 611.5,573.5C 614.07,572.366 616.736,571.532 619.5,571C 620.147,569.391 620.98,567.891 622,566.5C 622.984,568.894 623.484,571.394 623.5,574C 621.5,574.667 619.5,575.333 617.5,576C 618.381,577.471 619.714,578.304 621.5,578.5C 625.177,578.8 626.844,577.134 626.5,573.5C 627.822,573.33 628.989,573.663 630,574.5C 631.807,576.706 632.307,579.039 631.5,581.5C 633,583.833 634.5,586.167 636,588.5C 640.359,588.451 643.192,590.451 644.5,594.5 Z"/></g>
<g><path style="opacity:1" fill="#d0eeb2" d="M 618.5,583.5 C 620.257,584.292 621.591,585.625 622.5,587.5C 622.833,588.833 623.167,590.167 623.5,591.5C 623.176,595.81 621.51,599.477 618.5,602.5C 615.15,602.665 611.817,602.498 608.5,602C 607.177,601.184 606.511,600.017 606.5,598.5C 605.25,598.423 604.417,597.756 604,596.5C 602.094,584.571 606.927,580.238 618.5,583.5 Z"/></g>
<g><path style="opacity:1" fill="#022021" d="M 377.5,589.5 C 375.206,593.127 372.54,596.461 369.5,599.5C 368.713,598.758 368.047,597.925 367.5,597C 363.833,596.667 360.167,596.333 356.5,596C 354.347,595.901 352.681,595.067 351.5,593.5C 356.782,594.567 362.115,594.733 367.5,594C 368.756,593.583 369.423,592.75 369.5,591.5C 369.833,591.5 370.167,591.5 370.5,591.5C 370.435,591.938 370.601,592.272 371,592.5C 372.993,591.086 375.16,590.086 377.5,589.5 Z"/></g>
<g><path style="opacity:1" fill="#082130" d="M 569.5,576.5 C 570.193,578.541 570.193,580.875 569.5,583.5C 568.167,584.833 566.833,586.167 565.5,587.5C 564.232,586.572 562.899,586.405 561.5,587C 560.359,587.741 560.359,588.575 561.5,589.5C 560.263,590.281 559.263,591.281 558.5,592.5C 560.871,593.791 563.371,594.791 566,595.5C 568.612,594.533 570.945,593.199 573,591.5C 573.833,591.667 574.667,591.833 575.5,592C 575.784,593.956 575.784,596.123 575.5,598.5C 577.167,598.5 578.833,598.5 580.5,598.5C 580.66,596.801 580.494,595.134 580,593.5C 578.294,592.692 577.461,591.359 577.5,589.5C 579.634,590.902 581.301,592.735 582.5,595C 582.057,596.825 581.723,598.658 581.5,600.5C 579.043,602.001 579.043,603.668 581.5,605.5C 580.209,605.263 579.209,605.596 578.5,606.5C 571.468,601.315 563.802,597.148 555.5,594C 554.978,593.439 554.645,592.772 554.5,592C 559.663,587.003 564.663,581.837 569.5,576.5 Z"/></g>
<g><path style="opacity:1" fill="#132d1b" d="M 606.5,598.5 C 603.473,589.009 606.807,584.509 616.5,585C 624.177,592.791 622.844,598.291 612.5,601.5C 610.045,601.372 608.045,600.372 606.5,598.5 Z"/></g>
<g><path style="opacity:1" fill="#031e36" d="M 612.5,587.5 C 618.503,588.648 620.337,591.982 618,597.5C 614.582,598.266 611.082,598.266 607.5,597.5C 607.337,595.143 607.503,592.81 608,590.5C 609.652,589.601 611.152,588.601 612.5,587.5 Z"/></g>
<g><path style="opacity:1" fill="#d0ecb3" d="M 640.5,584.5 C 641.833,584.833 643.167,585.167 644.5,585.5C 646.102,587.074 648.102,587.741 650.5,587.5C 650.808,589.924 650.474,592.257 649.5,594.5C 647.417,595.959 645.25,597.292 643,598.5C 642.028,601.294 642.861,603.294 645.5,604.5C 645.443,605.609 645.11,606.609 644.5,607.5C 642.782,609.223 641.449,611.223 640.5,613.5C 637.903,611.112 635.403,611.112 633,613.5C 633.389,616.732 633.222,619.898 632.5,623C 630.5,623.5 628.5,624 626.5,624.5C 624.962,624.547 623.962,623.88 623.5,622.5C 626.167,622.5 628.833,622.5 631.5,622.5C 631.5,619.167 631.5,615.833 631.5,612.5C 634.937,610.607 638.27,608.441 641.5,606C 638.145,600.944 639.145,597.11 644.5,594.5C 646.185,593.816 647.185,592.483 647.5,590.5C 645.847,588.879 643.847,587.712 641.5,587C 640.748,586.329 640.414,585.496 640.5,584.5 Z"/></g>
<g><path style="opacity:1" fill="#112829" d="M 644.5,585.5 C 647.167,585.5 649.833,585.5 652.5,585.5C 652.911,588.553 653.577,591.553 654.5,594.5C 652.891,596.94 650.557,598.107 647.5,598C 645.485,599.555 645.152,601.389 646.5,603.5C 650.769,602.649 654.936,602.316 659,602.5C 660.31,603.13 661.144,604.13 661.5,605.5C 659.661,609.67 656.995,610.337 653.5,607.5C 654.59,606.391 654.59,605.391 653.5,604.5C 651.214,605.42 648.881,605.42 646.5,604.5C 646.167,604.5 645.833,604.5 645.5,604.5C 642.861,603.294 642.028,601.294 643,598.5C 645.25,597.292 647.417,595.959 649.5,594.5C 650.474,592.257 650.808,589.924 650.5,587.5C 648.102,587.741 646.102,587.074 644.5,585.5 Z"/></g>
<g><path style="opacity:1" fill="#cde6ba" d="M 585.5,597.5 C 584.565,600.113 584.398,602.779 585,605.5C 586.948,606.109 588.782,606.776 590.5,607.5C 588.516,607.383 586.85,608.05 585.5,609.5C 583.812,608.479 582.479,607.145 581.5,605.5C 579.043,603.668 579.043,602.001 581.5,600.5C 582.833,599.5 584.167,598.5 585.5,597.5 Z"/></g>
<g><path style="opacity:1" fill="#6c846d" d="M 645.5,604.5 C 645.833,604.5 646.167,604.5 646.5,604.5C 647.058,605.79 648.058,606.623 649.5,607C 648.263,607.232 647.263,607.732 646.5,608.5C 645.833,608.167 645.167,607.833 644.5,607.5C 645.11,606.609 645.443,605.609 645.5,604.5 Z"/></g>
<g><path style="opacity:1" fill="#122217" d="M 578.5,606.5 C 579.209,605.596 580.209,605.263 581.5,605.5C 582.479,607.145 583.812,608.479 585.5,609.5C 586.85,608.05 588.516,607.383 590.5,607.5C 590.703,609.044 591.37,610.378 592.5,611.5C 592.137,612.183 591.804,612.85 591.5,613.5C 590.418,617.272 591.418,620.606 594.5,623.5C 593.833,623.5 593.167,623.5 592.5,623.5C 589.345,616.67 584.678,611.003 578.5,606.5 Z"/></g>
<g><path style="opacity:1" fill="#132b11" d="M 644.5,607.5 C 645.167,607.833 645.833,608.167 646.5,608.5C 645.712,611.621 643.712,613.288 640.5,613.5C 641.449,611.223 642.782,609.223 644.5,607.5 Z"/></g>
<g><path style="opacity:1" fill="#032335" d="M 479.5,610.5 C 490.306,609.894 500.973,610.727 511.5,613C 526.176,620.616 532.343,632.783 530,649.5C 527.02,668.131 516.02,676.798 497,675.5C 482.289,676.784 474.289,670.117 473,655.5C 472.333,643.833 472.333,632.167 473,620.5C 473.435,615.945 475.602,612.611 479.5,610.5 Z"/></g>
<g><path style="opacity:1" fill="#d9edc5" d="M 646.5,604.5 C 648.881,605.42 651.214,605.42 653.5,604.5C 654.59,605.391 654.59,606.391 653.5,607.5C 656.995,610.337 659.661,609.67 661.5,605.5C 662.461,607.265 662.795,609.265 662.5,611.5C 661.093,613.817 660.093,616.317 659.5,619C 660.271,621.271 661.271,623.438 662.5,625.5C 662.224,627.33 661.557,628.997 660.5,630.5C 658.5,629.5 656.5,628.5 654.5,627.5C 652.473,628.693 650.973,630.36 650,632.5C 648.135,630.327 645.969,629.993 643.5,631.5C 642.061,629.64 640.395,627.973 638.5,626.5C 640.009,624.38 639.676,622.713 637.5,621.5C 637.433,620.041 637.766,618.708 638.5,617.5C 640.176,616.817 640.843,615.483 640.5,613.5C 643.712,613.288 645.712,611.621 646.5,608.5C 647.263,607.732 648.263,607.232 649.5,607C 648.058,606.623 647.058,605.79 646.5,604.5 Z"/></g>
<g><path style="opacity:1" fill="#bad5a8" d="M 591.5,613.5 C 592.591,620.128 596.091,621.795 602,618.5C 602.765,618.57 603.265,618.903 603.5,619.5C 600.669,620.079 598.336,621.412 596.5,623.5C 595.833,623.5 595.167,623.5 594.5,623.5C 591.418,620.606 590.418,617.272 591.5,613.5 Z"/></g>
<g><path style="opacity:1" fill="#0e2420" d="M 640.5,613.5 C 640.843,615.483 640.176,616.817 638.5,617.5C 638.824,614.306 637.658,613.306 635,614.5C 634.462,619.171 633.962,623.838 633.5,628.5C 634.833,628.5 636.167,628.5 637.5,628.5C 637.5,626.167 637.5,623.833 637.5,621.5C 639.676,622.713 640.009,624.38 638.5,626.5C 640.395,627.973 642.061,629.64 643.5,631.5C 645.969,629.993 648.135,630.327 650,632.5C 650.973,630.36 652.473,628.693 654.5,627.5C 656.5,628.5 658.5,629.5 660.5,630.5C 661.557,628.997 662.224,627.33 662.5,625.5C 661.271,623.438 660.271,621.271 659.5,619C 660.093,616.317 661.093,613.817 662.5,611.5C 663.073,614.659 663.24,617.992 663,621.5C 663.71,622.973 664.876,623.64 666.5,623.5C 666.657,624.873 666.49,626.207 666,627.5C 663.923,630.359 661.423,632.692 658.5,634.5C 655.351,631.894 652.184,631.894 649,634.5C 647.237,634.025 645.57,633.358 644,632.5C 643.641,636.502 643.808,640.502 644.5,644.5C 644.167,646.167 643.833,647.833 643.5,649.5C 642.817,649.863 642.15,650.196 641.5,650.5C 641.577,649.25 642.244,648.417 643.5,648C 641.199,645.997 641.199,644.163 643.5,642.5C 641.469,640.751 641.135,638.751 642.5,636.5C 641.68,634.889 640.346,634.222 638.5,634.5C 638.5,633.167 638.5,631.833 638.5,630.5C 637.07,630.421 635.736,630.754 634.5,631.5C 632.889,630.68 632.222,629.346 632.5,627.5C 631.07,627.579 629.736,627.246 628.5,626.5C 627.167,627.833 625.833,629.167 624.5,630.5C 623.667,629.5 622.833,628.5 622,627.5C 620.693,628.772 619.193,629.772 617.5,630.5C 618.742,633.93 617.409,635.263 613.5,634.5C 613.762,633.022 613.429,631.689 612.5,630.5C 607.065,630.674 603.065,628.507 600.5,624C 599.207,623.51 597.873,623.343 596.5,623.5C 598.336,621.412 600.669,620.079 603.5,619.5C 604.906,619.973 605.573,620.973 605.5,622.5C 606.038,624.117 606.371,625.784 606.5,627.5C 612.324,628.689 616.324,626.689 618.5,621.5C 620.338,620.322 622.005,620.655 623.5,622.5C 623.962,623.88 624.962,624.547 626.5,624.5C 628.5,624 630.5,623.5 632.5,623C 633.222,619.898 633.389,616.732 633,613.5C 635.403,611.112 637.903,611.112 640.5,613.5 Z"/></g>
<g><path style="opacity:1" fill="#192714" d="M 644.5,621.5 C 647.468,621.626 649.468,623.126 650.5,626C 648.586,627.827 646.586,627.827 644.5,626C 643.272,624.51 643.272,623.01 644.5,621.5 Z"/></g>
<g><path style="opacity:1" fill="#132112" d="M 649.5,613.5 C 654.202,614.647 654.702,616.981 651,620.5C 648.434,618.573 647.934,616.24 649.5,613.5 Z"/></g>
<g><path style="opacity:1" fill="#c4e2b4" d="M 618.5,621.5 C 616.324,626.689 612.324,628.689 606.5,627.5C 606.371,625.784 606.038,624.117 605.5,622.5C 606.974,624.137 608.808,625.137 611,625.5C 613.461,624.021 615.961,622.687 618.5,621.5 Z"/></g>
<g><path style="opacity:1" fill="#061b29" d="M 638.5,617.5 C 637.766,618.708 637.433,620.041 637.5,621.5C 637.5,623.833 637.5,626.167 637.5,628.5C 636.167,628.5 634.833,628.5 633.5,628.5C 633.962,623.838 634.462,619.171 635,614.5C 637.658,613.306 638.824,614.306 638.5,617.5 Z"/></g>
<g><path style="opacity:1" fill="#daedc6" d="M 641.5,650.5 C 641.5,650.833 641.5,651.167 641.5,651.5C 637.607,651.894 635.607,654.06 635.5,658C 633.802,657.503 632.135,657.67 630.5,658.5C 628.633,655.771 627.633,656.104 627.5,659.5C 625.833,659.5 624.167,659.5 622.5,659.5C 622.431,656.916 621.265,654.916 619,653.5C 617.333,656.167 615.667,656.167 614,653.5C 613.405,652.101 613.572,650.768 614.5,649.5C 612.766,648.326 611.766,646.66 611.5,644.5C 612.279,642.224 613.279,640.058 614.5,638C 614.257,637.098 613.923,636.265 613.5,635.5C 613.5,635.167 613.5,634.833 613.5,634.5C 617.409,635.263 618.742,633.93 617.5,630.5C 619.193,629.772 620.693,628.772 622,627.5C 622.833,628.5 623.667,629.5 624.5,630.5C 625.833,629.167 627.167,627.833 628.5,626.5C 629.736,627.246 631.07,627.579 632.5,627.5C 632.222,629.346 632.889,630.68 634.5,631.5C 635.736,630.754 637.07,630.421 638.5,630.5C 638.5,631.833 638.5,633.167 638.5,634.5C 640.346,634.222 641.68,634.889 642.5,636.5C 641.135,638.751 641.469,640.751 643.5,642.5C 641.199,644.163 641.199,645.997 643.5,648C 642.244,648.417 641.577,649.25 641.5,650.5 Z"/></g>
<g><path style="opacity:1" fill="#0c1d16" d="M 623.5,633.5 C 633.453,633.096 637.62,637.763 636,647.5C 629.445,655.823 623.445,655.49 618,646.5C 616.571,640.7 618.404,636.367 623.5,633.5 Z"/></g>
<g><path style="opacity:1" fill="#d0ecca" d="M 624.5,639.5 C 629.881,639.452 631.547,641.952 629.5,647C 627.559,647.743 625.726,647.576 624,646.5C 623.444,644.115 623.61,641.782 624.5,639.5 Z"/></g>
<g><path style="opacity:1" fill="#132b27" d="M 613.5,635.5 C 613.923,636.265 614.257,637.098 614.5,638C 613.279,640.058 612.279,642.224 611.5,644.5C 611.766,646.66 612.766,648.326 614.5,649.5C 613.572,650.768 613.405,652.101 614,653.5C 615.667,656.167 617.333,656.167 619,653.5C 621.265,654.916 622.431,656.916 622.5,659.5C 624.167,659.5 625.833,659.5 627.5,659.5C 627.633,656.104 628.633,655.771 630.5,658.5C 632.135,657.67 633.802,657.503 635.5,658C 635.607,654.06 637.607,651.894 641.5,651.5C 640.462,657.949 636.629,661.283 630,661.5C 626.564,661.144 623.064,660.977 619.5,661C 617.893,659.951 617.227,658.451 617.5,656.5C 615.139,656.326 612.806,655.993 610.5,655.5C 610.755,650.043 610.088,644.71 608.5,639.5C 608.984,635.96 610.651,634.626 613.5,635.5 Z"/></g>
<g><path style="opacity:1" fill="#e4f4f3" d="M 592.5,625.5 C 598.629,652.416 589.963,673.25 566.5,688C 557.425,693.02 547.758,696.353 537.5,698C 510.645,698.691 483.812,698.191 457,696.5C 441.301,696.97 425.635,697.97 410,699.5C 406.833,699.333 403.667,699.167 400.5,699C 398.509,698.626 396.842,697.793 395.5,696.5C 400.881,696.431 406.047,696.764 411,697.5C 418.88,695.771 426.88,694.438 435,693.5C 448.501,694.823 462.001,694.823 475.5,693.5C 483.861,694.091 492.195,694.924 500.5,696C 516.003,697.306 531.337,696.306 546.5,693C 547.646,692.355 548.646,691.522 549.5,690.5C 552.319,690.742 555.319,690.742 558.5,690.5C 558.5,689.5 558.5,688.5 558.5,687.5C 560.199,687.66 561.866,687.494 563.5,687C 565.707,684.295 568.374,682.129 571.5,680.5C 572.906,681.668 574.072,681.335 575,679.5C 575.672,676.821 576.839,674.488 578.5,672.5C 577.417,670.125 577.417,667.792 578.5,665.5C 581.215,662.786 583.549,659.786 585.5,656.5C 587.164,657.223 588.831,656.89 590.5,655.5C 591.378,650.642 592.378,645.808 593.5,641C 592.711,636.86 592.045,632.694 591.5,628.5C 591.52,627.274 591.853,626.274 592.5,625.5 Z"/></g>
<g><path style="opacity:1" fill="#e4f4f4" d="M 325.5,673.5 C 323.808,679.715 320.475,684.882 315.5,689C 307.18,693.109 298.514,696.442 289.5,699C 282.698,701.817 276.865,705.984 272,711.5C 259.86,732.275 264.027,748.942 284.5,761.5C 283.417,761.539 282.417,761.873 281.5,762.5C 279.674,759.495 277.007,757.661 273.5,757C 272.107,755.829 271.273,754.329 271,752.5C 269.045,751.547 267.378,750.213 266,748.5C 264.005,743.36 262.839,738.027 262.5,732.5C 262.973,725.685 264.139,719.019 266,712.5C 271.794,709.129 276.628,704.629 280.5,699C 280.043,698.586 279.709,698.086 279.5,697.5C 281.296,696.859 282.796,695.859 284,694.5C 284.333,695.167 284.667,695.833 285,696.5C 285.741,695.359 286.575,695.359 287.5,696.5C 293.289,694.183 299.289,692.35 305.5,691C 309.25,688.919 311.916,685.919 313.5,682C 315.218,681.654 316.885,681.154 318.5,680.5C 320.553,677.78 322.886,675.447 325.5,673.5 Z"/></g>
<g><path style="opacity:1" fill="#273f4b" d="M 391.5,758.5 C 413.996,757.337 436.663,757.17 459.5,758C 462.695,758.181 465.695,758.681 468.5,759.5C 442.846,758.6 417.18,758.266 391.5,758.5 Z"/></g>
<g><path style="opacity:1" fill="#d7e9ec" d="M 367.5,759.5 C 375.316,758.508 383.316,758.174 391.5,758.5C 417.18,758.266 442.846,758.6 468.5,759.5C 472.167,759.5 475.833,759.5 479.5,759.5C 495.971,761.237 512.637,762.237 529.5,762.5C 539.5,762.5 549.5,762.5 559.5,762.5C 532.974,765.248 506.307,765.081 479.5,762C 442.174,760.806 404.84,759.972 367.5,759.5 Z"/></g>
<g><path style="opacity:1" fill="#edf9f6" d="M 626.5,755.5 C 626.611,756.117 626.944,756.617 627.5,757C 619.188,759.528 610.855,761.695 602.5,763.5C 601.558,763.392 600.725,763.059 600,762.5C 591.448,763.687 582.948,764.853 574.5,766C 555.833,766.667 537.167,766.667 518.5,766C 508.596,763.844 498.763,764.344 489,767.5C 487.189,766.922 485.355,766.422 483.5,766C 488.774,765.187 488.774,764.687 483.5,764.5C 482.167,764.667 480.833,764.833 479.5,765C 478.359,765.741 478.359,766.575 479.5,767.5C 474.533,768.662 469.533,768.829 464.5,768C 464.833,767.667 465.167,767.333 465.5,767C 464.027,766.29 463.36,765.124 463.5,763.5C 457.71,763.904 452.044,763.404 446.5,762C 410.881,761.966 375.715,761.8 341,761.5C 336.966,762.716 332.8,763.716 328.5,764.5C 326.811,764.274 325.145,763.941 323.5,763.5C 320.734,764.967 317.734,765.8 314.5,766C 303.696,768.255 293.696,767.588 284.5,764C 283.402,763.23 283.402,762.397 284.5,761.5C 290.484,763.536 296.65,764.536 303,764.5C 317.205,763.363 331.372,761.863 345.5,760C 352.826,759.5 360.159,759.334 367.5,759.5C 404.84,759.972 442.174,760.806 479.5,762C 506.307,765.081 532.974,765.248 559.5,762.5C 582.092,762.551 604.425,760.218 626.5,755.5 Z"/></g>
<g><path style="opacity:1" fill="#223c45" d="M 479.5,759.5 C 496.471,758.879 513.138,759.879 529.5,762.5C 512.637,762.237 495.971,761.237 479.5,759.5 Z"/></g>
</svg>
